<svg width="733" height="1257" viewBox="0 0 733 1257" fill="none" xmlns="http://www.w3.org/2000/svg">
<g clip-path="url(#clip0_110_296)">
<rect width="906" height="1257" fill="#D2CFBC"/>
<g opacity="0.85" filter="url(#filter0_f_110_296)">
<path d="M1005.41 513.423C844.766 636.396 430.902 987.232 187.257 929.481L271.642 849.562C403.753 929.935 784.009 652.178 1005.41 513.423ZM694.061 670.344C591.801 748.849 379.017 881.69 287.164 834.861L314.523 808.949C402.549 849.972 599.404 737.426 694.061 670.344Z" fill="url(#paint0_linear_110_296)"/>
</g>
<g filter="url(#filter1_f_110_296)">
<path d="M882.123 1105H680.871V1124.69H760.554C760.043 1146.3 758.766 1168.73 755.191 1190.06C737.313 1180.49 718.669 1171.74 702.324 1164.9L691.342 1181.04C709.986 1189.24 731.184 1199.91 750.849 1211.12C740.378 1251.6 718.159 1287.43 669.123 1308.77C674.23 1312.87 679.849 1320.53 682.914 1326C733.227 1302.75 757.234 1264.73 769.238 1222.06C786.605 1232.46 801.928 1243.13 812.4 1252.42L824.148 1233.55C811.889 1223.43 794.011 1211.94 774.09 1200.46C778.943 1175.84 780.475 1149.86 781.497 1124.69H862.202C859.392 1242.85 855.051 1290.17 845.346 1300.29C842.025 1303.57 838.705 1304.67 832.576 1304.67C825.169 1304.67 804.993 1304.39 782.774 1302.48C787.115 1308.77 789.669 1317.79 790.18 1323.81C808.569 1324.91 828.234 1325.45 839.216 1324.63C850.198 1323.54 856.583 1321.08 863.479 1312.05C874.971 1297.55 878.292 1250.24 882.123 1116.21V1105Z" fill="#3A3531"/>
</g>
<g filter="url(#filter2_f_110_296)">
<path d="M517.118 493.643C519.232 516.895 522.985 558.169 271.123 832C294.348 807.664 317.574 797.71 342.912 785.542C368.249 773.374 380.566 778.167 398.865 763.419L459.041 749.039C457.634 741.664 457.563 722.491 468.543 704.793C482.267 682.67 490.713 679.351 494.936 671.608C499.159 663.865 526.608 648.379 532.942 640.636C539.276 632.893 563.558 619.619 595.23 601.92C626.901 584.222 681.799 628.468 692.356 640.636C702.914 652.803 779.981 617.406 805.319 585.328C821.155 560.993 829.601 585.328 844.381 585.328C859.161 585.328 853.882 598.602 865.495 609.663C877.108 620.725 898.223 612.982 905.613 609.663C913.003 606.345 918.281 575.373 918.281 565.417C918.281 555.462 940.036 545.507 972.763 575.373C1005.49 605.239 1016.43 612.013 1010.15 597.665C1010.15 597.665 1005.09 588.875 1003.79 582.579C1002.45 576.027 992.815 573.382 1003.79 565.417C1017.52 555.462 1021.74 567.63 1035.47 575.373C1049.19 583.116 1058.69 578.691 1070.31 575.373C1081.92 572.054 1079.81 556.568 1088.25 545.507C1096.7 534.445 1095.64 515.64 1100.92 502.367C1106.2 489.093 1103.03 478.031 1079.81 449.271C1056.58 420.511 1036.52 434.891 1035.47 430.467C1034.41 426.042 1035.47 377.371 1014.35 356.354C993.238 335.337 991.126 349.717 976.346 347.505C961.566 345.293 954.176 336.443 964.733 317.639C975.29 298.834 1003.79 263.437 1014.35 237.996C1024.91 212.554 1024.91 221.404 1014.35 180.476C1003.79 139.548 989.015 145.078 943.619 136.229C898.223 127.38 916.17 128.486 871.829 136.229C827.489 143.972 825.378 170.52 821.155 194.855C816.932 219.191 798.984 243.526 798.984 232.464C798.984 221.403 802.152 216.978 798.984 209.235C795.817 201.492 765.201 187.112 744.087 186.006C722.972 184.9 726.14 184.9 715.582 180.476C705.025 176.052 716.638 164.99 692.356 151.716C668.075 138.442 643.793 162.777 608.954 180.476C593.118 193.75 573.06 198.174 595.23 237.996C617.4 277.817 576.227 324.275 573.06 312.108C569.892 299.94 564.614 294.409 563.558 324.275C562.502 354.142 582.561 391.751 532.942 387.326C483.323 382.902 514.995 470.288 517.106 493.517L517.118 493.643Z" fill="#CD8B82"/>
</g>
<g filter="url(#filter3_f_110_296)">
<path d="M474.122 258.033C476.821 259.4 481.61 261.827 494.252 311.141C493.187 306.658 493.7 303.177 494.116 299.288C494.532 295.399 495.91 294.255 495.556 291.031L498.138 282.808C497.232 282.463 495.122 281.134 493.939 278.583C492.46 275.393 492.679 274.149 492.122 273.102C491.564 272.055 491.762 267.682 491.35 266.382C490.938 265.082 491.16 261.243 491.407 256.209C491.654 251.174 500.306 247.671 502.371 247.253C504.436 246.834 505.88 235.119 504.11 229.842C502.534 226.245 505.789 226.928 506.811 225.154C507.833 223.381 508.925 224.94 510.942 224.317C512.959 223.695 513.569 220.622 513.715 219.504C513.862 218.385 510.828 215.593 509.735 214.898C508.642 214.204 509.054 210.9 514.594 209.055C520.135 207.21 521.634 206.37 519.625 206.123C519.625 206.123 518.311 206.118 517.531 205.834C516.719 205.538 515.762 206.51 515.647 204.637C515.503 202.296 517.131 202.638 518.929 201.531C520.728 200.424 520.899 198.975 521.338 197.35C521.777 195.725 519.931 194.899 519.301 193.114C518.671 191.33 516.534 190.145 515.442 188.586C514.35 187.028 512.917 186.636 508.155 187.418C503.392 188.2 503.584 191.61 503.025 191.428C502.467 191.246 497.198 187.726 493.431 188.794C489.665 189.863 491.097 191.119 489.832 192.738C488.568 194.357 487.085 194.627 485.751 192.049C484.417 189.471 482.503 183.583 480.441 180.542C478.378 177.502 479.349 178.119 474.127 176.532C468.906 174.945 468.491 177.105 464.381 181.935C460.271 186.765 461.633 184.689 459.418 190.549C457.202 196.41 459.97 198.514 462.349 200.718C464.728 202.921 466.158 206.771 464.944 206C463.73 205.229 463.463 204.54 462.394 204.381C461.325 204.221 457.63 206.892 456.049 209.349C454.468 211.805 454.687 211.425 453.472 212.383C452.256 213.342 451.845 211.177 448.709 213.165C445.574 215.153 446.566 219.764 446.1 225.178C446.462 228.004 445.561 230.72 451.464 230.836C457.367 230.952 459.62 239.131 458.065 238.663C456.511 238.195 455.539 238.443 458.744 240.651C461.949 242.86 467.464 243.076 463.548 248.721C459.631 254.367 471.412 256.659 474.108 258.025L474.122 258.033Z" fill="#CD8B82"/>
</g>
<g filter="url(#filter4_f_110_296)">
<path d="M310.123 800C539.089 550.684 535.257 513.487 533.341 492.376C531.425 471.264 502.684 391.845 547.711 395.866C592.738 399.888 574.536 365.707 575.494 338.564C576.452 311.42 581.242 316.447 584.116 327.505C586.99 338.564 624.353 296.341 604.234 260.15C584.116 223.959 602.318 219.938 616.689 207.874C648.303 191.789 670.338 169.672 692.372 181.736C714.406 193.8 703.868 203.853 713.448 207.874C723.029 211.895 720.155 211.895 739.315 212.9C758.475 213.905 786.258 226.974 789.132 234.011C792.006 241.049 789.132 245.07 789.132 255.123C789.132 265.176 805.418 243.059 809.25 220.942C813.082 198.826 814.998 174.698 855.235 167.661C895.472 160.624 879.186 159.619 920.38 167.661C961.575 175.704 974.987 170.678 984.568 207.874C994.148 245.07 994.148 237.028 984.568 260.15C974.987 283.272 949.121 315.442 939.541 332.532C929.961 349.622 936.667 357.665 950.079 359.676C963.491 361.686 965.407 348.617 984.568 367.718C1003.73 386.819 1002.77 431.052 1003.73 435.074C1004.69 439.095 1022.89 426.026 1043.96 452.164C1065.04 478.302 1067.92 488.355 1063.13 500.419C1058.34 512.482 1059.29 529.573 1051.63 539.626C1043.96 549.679 1045.88 563.753 1035.34 566.769C1024.8 569.785 1016.18 573.806 1003.73 566.769C991.274 559.732 987.442 548.673 974.987 557.721C965.024 564.959 962.533 572.801 962.533 575.817C961.256 575.817 958.318 575.817 956.785 575.817C954.869 575.817 979.778 593.912 950.079 566.769C920.38 539.626 897.388 548.673 897.388 557.721C897.388 566.769 892.598 594.918 885.892 597.933C879.186 600.949 860.025 607.987 849.487 597.933C838.949 587.88 843.739 575.817 830.327 575.817C816.914 575.817 809.25 553.7 794.88 575.817C771.888 604.971 701.952 637.14 692.372 626.082C682.792 615.024 632.975 574.811 604.234 590.896C575.494 606.981 553.459 619.045 547.711 626.082C541.963 633.119 517.055 647.194 513.223 654.231C509.39 661.268 501.726 664.284 489.272 684.39C479.309 700.475 479.373 717.9 480.65 724.602L426.043 737.671C409.437 751.075 398.26 746.719 375.268 757.777C352.275 768.836 331.199 777.883 310.123 800Z" stroke="url(#paint1_linear_110_296)" stroke-width="9.48617"/>
</g>
<g filter="url(#filter5_f_110_296)">
<path d="M493.949 303.895C482.042 259.252 477.67 257.095 475.207 255.841C472.744 254.586 462.006 252.42 465.525 247.364C469.045 242.308 464.026 242.067 461.092 240.048C458.158 238.029 459.041 237.814 460.459 238.25C461.877 238.685 459.764 231.292 454.391 231.137C449.018 230.982 449.818 228.542 449.466 225.992C449.848 221.115 448.91 216.95 451.748 215.185C454.586 213.419 454.977 215.374 456.075 214.52C457.174 213.667 456.978 214.007 458.398 211.806C459.817 209.605 463.159 207.229 464.133 207.382C465.107 207.535 465.355 208.158 466.466 208.864C467.576 209.569 466.245 206.086 464.063 204.08C461.881 202.073 459.346 200.153 461.317 194.888C463.288 189.624 462.065 191.485 465.767 187.165C469.47 182.846 469.83 180.903 474.594 182.378C479.359 183.853 478.47 183.288 480.37 186.047C482.271 188.805 484.058 194.13 485.292 196.465C486.526 198.8 487.873 198.57 489.011 197.121C490.149 195.672 488.836 194.527 492.255 193.596C495.674 192.666 500.496 195.884 501.006 196.052C501.516 196.221 501.315 193.146 505.643 192.482C509.97 191.817 511.277 192.182 512.283 193.597C513.289 195.011 515.242 196.097 515.83 197.711C516.417 199.326 518.103 200.086 517.716 201.547C517.33 203.008 517.185 204.313 515.557 205.295C513.929 206.278 512.445 205.956 512.594 208.068C512.713 209.757 513.409 210.603 513.743 210.814C513.655 210.966 513.455 211.314 513.35 211.496C513.219 211.723 516.92 210.04 511.892 211.656C506.865 213.272 506.294 216.632 507.293 217.268C508.293 217.903 511.076 220.446 510.951 221.453C510.826 222.459 510.295 225.225 508.464 225.769C506.634 226.313 505.628 224.898 504.712 226.488C503.796 228.078 500.829 227.434 502.291 230.69C503.941 235.462 502.719 246.011 500.843 246.371C498.966 246.731 491.121 249.814 490.935 254.351C490.749 258.887 490.577 262.346 490.961 263.521C491.346 264.697 491.2 268.638 491.716 269.586C492.232 270.534 492.041 271.654 493.412 274.542C494.509 276.852 496.438 278.068 497.266 278.387L494.98 285.778C495.327 288.687 494.082 289.706 493.733 293.208C493.385 296.71 492.945 299.844 493.949 303.895Z" stroke="url(#paint2_linear_110_296)" stroke-width="9.48617"/>
</g>
<g filter="url(#filter6_f_110_296)">
<path d="M284.499 1002.38C257.265 1104.58 324.591 1207.77 425.075 1217.84L495.476 1224.9C505.722 1225.93 513.235 1235.49 512.255 1246.27C511.276 1257.04 502.175 1264.94 491.929 1263.91L421.527 1256.85C297.923 1244.46 215.107 1117.53 248.606 991.819L286.893 848.142L337.23 804.501L284.499 1002.38ZM500.892 1062.36C487.539 1112.47 441.969 1145.34 392.699 1140.4C329.275 1134.04 286.78 1068.91 303.969 1004.41L329.025 910.381C352.521 822.211 432.705 764.375 519.399 773.067L538.759 775.008L589.087 586.147L639.425 542.505L500.892 1062.36ZM99.2603 1070.23L76.8354 1139.17L74.7964 1138.45L94.4087 1069.87L117.854 1001.29L99.2603 1070.23ZM515.852 812.078C447.119 805.186 383.546 851.041 364.917 920.945L339.861 1014.97C328.938 1055.96 355.943 1097.35 396.247 1101.39C427.556 1104.53 456.514 1083.64 465 1051.8L528.542 813.35L515.852 812.078ZM18.395 1061.88L15.4185 1057.57L47.4937 1038.28L18.395 1061.88ZM122.68 1010.27L115.139 1037.52L119.035 1009.55L123.873 995.251L122.68 1010.27ZM96.9966 1017.38L93.4038 1013.63L122.143 989.215L96.9966 1017.38ZM79.9058 1005.88L35.9243 1013.44L78.3433 999.669L102.042 997.081L79.9058 1005.88ZM240.934 946.322C231.123 983.139 197.64 1007.29 161.44 1003.66C147.468 1002.26 134.878 996.976 124.438 988.987L155.231 962.29C158.288 963.495 161.555 964.305 164.988 964.649C183.228 966.478 200.098 954.309 205.042 935.758L210.813 914.102L261.15 870.461L240.934 946.322ZM190.962 297.189C192.783 286.538 202.472 279.456 212.602 281.371C222.733 283.285 229.469 293.472 227.648 304.123L192.562 509.333C252.712 521.511 294.785 582.859 283.477 648.995L248.089 855.963L201.931 904.431L246.791 642.061C254.388 597.624 226.274 556.388 185.964 547.919L123.632 912.483C120.069 933.321 132.556 952.721 150.963 957.948L122.726 987.598C96.7689 971.461 81.147 939.465 86.9458 905.549L190.962 297.189ZM170.042 946.967L139.387 973.121L166.21 942.944L170.042 946.967ZM362.997 297.189C364.818 286.538 374.506 279.456 384.636 281.371C394.767 283.285 401.503 293.472 399.682 304.123L317.855 782.708L271.697 831.176L362.997 297.189ZM831.536 375.951C845.004 394.781 850.489 419.83 843.848 444.75L827.269 506.963C810.747 568.963 754.363 609.633 693.401 603.521L684.45 602.624L647.736 740.396C641.373 764.276 657.105 788.388 680.584 790.742C698.824 792.57 715.695 780.402 720.638 761.851L737.464 698.709C740.241 688.289 750.528 682.206 760.439 685.123C770.35 688.04 776.134 698.852 773.357 709.273L756.531 772.415C746.72 809.232 713.237 833.382 677.037 829.752C630.437 825.08 599.214 777.226 611.843 729.833L668.474 517.321L718.811 473.68L694.667 564.282L696.948 564.51C739.949 568.822 779.722 540.134 791.376 496.4L807.956 434.187C811.138 422.244 808.794 410.243 802.718 400.935L831.536 375.951ZM341.72 797.953L307.099 827.421L337.429 793.371L356.787 778.784L341.72 797.953ZM340.375 750.143L325.826 770.878L337.485 748.328L345.869 737.74L340.375 750.143ZM541.798 692.592C531.987 729.409 498.505 753.56 462.304 749.93C446.4 748.335 432.286 741.711 421.096 731.792L450.855 705.992C455.31 708.634 460.37 710.37 465.852 710.919C484.092 712.748 500.962 700.579 505.906 682.029L514.142 651.124L564.479 607.482L541.798 692.592ZM497.455 281.061C537.652 281.061 568.062 319.292 560.95 360.887L526.24 563.901L480.081 612.369L512.724 421.45C465.44 431.103 427.431 470.404 418.64 521.821L400.166 629.874C396.967 648.582 406.704 666.13 422.047 673.305L394.759 701.958C371.528 685.055 358.024 654.848 363.479 622.941L381.954 514.887C394.367 442.284 451.11 388.062 519.673 380.803L524.264 353.954C527.267 336.391 514.427 320.25 497.455 320.25H494.916C484.623 320.249 476.279 311.477 476.279 300.656C476.279 289.834 484.623 281.061 494.916 281.061H497.455ZM435.815 671.678L399.959 699.472L431.726 666.897L435.815 671.678ZM881.828 326.324L513.96 648.213L877.038 320.289L881.828 326.324ZM590.356 297.189C592.177 286.538 601.866 279.456 611.997 281.371C622.127 283.285 628.864 293.472 627.042 304.123L594.964 491.739L548.805 540.207L590.356 297.189ZM715.668 281.061C737.865 281.061 757.499 291.072 771.127 306.763L744.703 334.51C737.815 325.855 727.459 320.25 715.668 320.25C697.345 320.25 681.653 334.047 678.412 353.007L667.76 415.301L621.602 463.768L641.725 346.074C648.159 308.444 679.303 281.061 715.668 281.061ZM695.285 398.232L665.246 432.801L690.391 394.375L695.285 398.232ZM790.819 295.677L756.332 325.318L786.507 291.117L790.819 295.677Z" fill="#3A3531"/>
</g>
<g opacity="0.85" filter="url(#filter7_f_110_296)">
<path d="M394.212 290.11C316.296 438.314 139.388 755.844 266.8 846.376C268.374 847.495 269.988 848.556 271.641 849.562L187.255 929.481C182.407 928.332 177.627 927.021 172.917 925.543C-68.4955 849.8 316.062 385.597 394.212 290.11ZM376.968 373.601C318.85 481.903 220.817 717.62 293.623 794.069C299.614 800.359 306.631 805.271 314.523 808.949L287.164 834.859C279.487 830.945 272.653 825.778 266.8 819.217C190.928 734.156 308.632 486.697 376.968 373.601Z" fill="url(#paint3_linear_110_296)"/>
</g>
<g filter="url(#filter8_f_110_296)">
<path d="M310.123 800C538.676 551.134 535.27 513.622 533.351 492.49L533.341 492.376C531.425 471.264 502.684 391.845 547.711 395.866C592.738 399.888 574.536 365.707 575.494 338.564C576.452 311.42 581.242 316.447 584.116 327.505C586.99 338.564 624.353 296.341 604.234 260.15C584.116 223.959 602.318 219.938 616.689 207.874C648.303 191.789 670.338 169.672 692.372 181.736C714.406 193.8 703.868 203.853 713.448 207.874C723.029 211.895 720.155 211.895 739.315 212.9C758.475 213.905 786.258 226.974 789.132 234.011C792.006 241.049 789.132 245.07 789.132 255.123C789.132 265.176 805.418 243.059 809.25 220.942C813.082 198.826 814.998 174.698 855.235 167.661C895.472 160.624 879.186 159.619 920.38 167.661C961.575 175.704 974.987 170.678 984.568 207.874C994.148 245.07 994.148 237.028 984.568 260.15C974.987 283.272 949.121 315.442 939.541 332.532C929.961 349.622 936.667 357.665 950.079 359.676C963.491 361.686 965.407 348.617 984.568 367.718C1003.73 386.819 1002.77 431.052 1003.73 435.074C1004.69 439.095 1022.89 426.026 1043.96 452.164C1065.04 478.302 1067.92 488.355 1063.13 500.419C1058.34 512.482 1059.29 529.573 1051.63 539.626C1043.96 549.679 1045.88 563.753 1035.34 566.769C1024.8 569.785 1016.18 573.806 1003.73 566.769C991.274 559.732 987.442 548.673 974.987 557.721C965.024 564.959 962.533 572.801 962.533 575.817H959.701C973.208 589.111 955.143 575.817 956.785 575.817H959.701C957.45 573.601 954.322 570.647 950.079 566.769C920.38 539.626 897.388 548.673 897.388 557.721C897.388 566.769 892.598 594.918 885.892 597.933C879.186 600.949 860.025 607.987 849.487 597.933C838.949 587.88 843.739 575.817 830.327 575.817C816.914 575.817 809.25 553.7 794.88 575.817C771.888 604.971 701.952 637.14 692.372 626.082C682.792 615.024 632.975 574.811 604.234 590.896C575.494 606.981 553.459 619.045 547.711 626.082C541.963 633.119 517.055 647.194 513.223 654.231C509.39 661.268 501.726 664.284 489.272 684.39C479.309 700.475 479.373 717.9 480.65 724.602L426.043 737.671C409.437 751.075 398.26 746.719 375.268 757.777C352.275 768.836 331.199 777.883 310.123 800Z" fill="url(#paint4_linear_110_296)"/>
</g>
<g filter="url(#filter9_f_110_296)">
<path d="M493.949 303.895C482.063 259.332 477.686 257.103 475.22 255.848L475.207 255.841C472.744 254.586 462.006 252.42 465.525 247.364C469.045 242.308 464.026 242.067 461.092 240.048C458.158 238.029 459.041 237.814 460.459 238.25C461.877 238.685 459.764 231.292 454.391 231.137C449.018 230.982 449.818 228.542 449.466 225.992C449.848 221.115 448.91 216.95 451.748 215.185C454.586 213.419 454.977 215.374 456.075 214.52C457.174 213.667 456.978 214.007 458.398 211.806C459.817 209.605 463.159 207.229 464.133 207.382C465.107 207.535 465.355 208.158 466.466 208.864C467.576 209.569 466.245 206.086 464.063 204.08C461.881 202.073 459.346 200.153 461.317 194.888C463.288 189.624 462.065 191.485 465.767 187.165C469.47 182.846 469.83 180.903 474.594 182.378C479.359 183.853 478.47 183.288 480.37 186.047C482.271 188.805 484.058 194.13 485.292 196.465C486.526 198.8 487.873 198.57 489.011 197.121C490.149 195.672 488.836 194.527 492.255 193.596C495.674 192.666 500.496 195.884 501.006 196.052C501.516 196.221 501.315 193.146 505.643 192.482C509.97 191.817 511.277 192.182 512.283 193.597C513.289 195.011 515.242 196.097 515.83 197.711C516.417 199.326 518.103 200.086 517.716 201.547C517.33 203.008 517.185 204.313 515.557 205.295C513.929 206.278 512.445 205.956 512.594 208.068C512.713 209.757 513.409 210.603 513.743 210.814L513.549 211.15C515.941 210.482 513.238 211.69 513.35 211.496L513.549 211.15C513.151 211.261 512.61 211.425 511.892 211.656C506.865 213.272 506.294 216.633 507.293 217.268C508.293 217.903 511.076 220.446 510.951 221.453C510.826 222.459 510.295 225.225 508.464 225.769C506.634 226.313 505.628 224.898 504.712 226.488C503.796 228.078 500.829 227.434 502.291 230.69C503.941 235.462 502.719 246.011 500.843 246.371C498.966 246.731 491.121 249.815 490.935 254.351C490.749 258.887 490.577 262.346 490.961 263.521C491.346 264.697 491.2 268.638 491.716 269.586C492.232 270.534 492.041 271.654 493.412 274.542C494.509 276.852 496.438 278.068 497.266 278.387L494.98 285.778C495.327 288.687 494.082 289.706 493.733 293.208C493.385 296.71 492.945 299.844 493.949 303.895Z" fill="url(#paint5_linear_110_296)"/>
</g>
<g filter="url(#filter10_f_110_296)">
<path fill-rule="evenodd" clip-rule="evenodd" d="M130.606 293.143C223.724 293.143 299.212 213.88 299.212 116.103C299.212 110.442 298.959 104.842 298.464 99.3165C298.424 99.3149 298.385 99.3134 298.346 99.3119C296.54 99.2423 294.734 99.1726 292.93 99.1328C288.964 99.0453 284.989 99.0304 281.014 99.0156C275.453 98.9948 269.889 98.974 264.343 98.7543C261.878 98.6566 259.461 98.2115 257.029 97.7636C254.53 97.3036 252.016 96.8405 249.418 96.7481C245.812 96.6197 242.134 96.6415 238.434 96.6635C230.912 96.7081 223.303 96.7532 216.036 95.5368C214.982 95.3604 220.382 93.4239 221.588 93.3413C224.307 93.1551 222.574 93.2353 219.119 93.3951C214.13 93.6259 205.552 94.0227 201.616 94.0227C199.731 93.6267 197.309 93.0331 194.762 92.4088C190.783 91.4339 186.499 90.3839 183.483 89.8967C177.803 88.979 194.79 87.3919 200.535 87.2091C202.994 87.1309 205.071 86.4626 207.265 85.7565C208.129 85.4783 209.012 85.1942 209.944 84.9379C214.068 83.8036 218.816 83.4872 223.062 83.2042L223.174 83.1967C225.932 83.0128 228.7 83.0507 231.468 83.0885C233.849 83.1211 236.229 83.1537 238.603 83.0453C240.741 82.9477 242.852 82.6839 244.961 82.4204C247.611 82.0891 250.259 81.7583 252.951 81.7583C260.722 81.7583 268.507 81.0978 276.291 80.4375C282.71 79.8929 289.13 79.3483 295.538 79.1743C279.361 -0.875877 211.663 -60.936 130.606 -60.936C53.6691 -60.936 -11.2318 -6.82725 -31.4649 67.126C-30.6984 66.8073 -29.9521 66.4581 -29.2087 66.1102C-27.2394 65.1886 -25.2899 64.2763 -23.037 63.9665C-21.1153 63.7023 -19.1506 63.7455 -17.1956 63.7885C-16.2302 63.8098 -15.2672 63.831 -14.3129 63.8151C-10.4252 63.7503 -6.22846 62.7782 -2.12642 61.828C0.186329 61.2923 2.46907 60.7635 4.64927 60.4083C5.7172 60.2343 6.77859 60.0589 7.83504 59.8842C16.7291 58.4139 25.2731 57.0015 34.4264 57.0015C35.0035 57.0015 35.76 56.926 36.5842 56.8437C39.4032 56.5621 43.0129 56.2016 42.9342 58.5157C42.9279 58.6996 42.9526 59.0395 42.9833 59.4618C43.0977 61.0352 43.2953 63.7527 42.2853 63.8151C37.0182 64.1404 31.7442 65.1459 26.4728 66.1509C20.3434 67.3195 14.2174 68.4874 8.11005 68.5846C4.20247 68.6467 0.291577 68.626 -3.6185 68.6053C-5.57309 68.5949 -7.52859 68.5846 -9.48226 68.5846C-9.72167 68.5846 -9.97054 68.5825 -10.2267 68.5805C-13.0606 68.5573 -16.7839 68.5269 -18.4226 71.1586C-19.0888 72.2284 -18.7374 73.6517 -18.4091 74.9816C-18.2389 75.671 -18.0749 76.3353 -18.0621 76.9122C-17.9513 81.9138 -21.7055 82.2803 -25.8171 82.6816L-25.8388 82.6837C-26.0338 82.7027 -26.2295 82.7219 -26.4257 82.7416C-28.1578 82.9157 -29.9419 82.8504 -31.7281 82.785C-32.8241 82.7448 -33.9209 82.7047 -35.0069 82.7198C-35.7136 86.6085 -36.2991 90.5424 -36.7593 94.517C-27.9726 93.4613 -19.0772 93.3762 -10.1802 93.291C-2.37092 93.2163 5.44014 93.1416 13.1793 92.4104C15.8609 92.1571 18.526 92.2375 21.1941 92.318C23.3171 92.3821 25.4423 92.4462 27.5792 92.3423C29.9531 92.2268 32.3209 91.9705 34.6885 91.7141C37.442 91.416 40.1968 91.1177 42.9594 91.0413L43.0715 91.0382C47.3245 90.9206 52.0801 90.789 56.2851 91.5307C57.2349 91.6982 58.1384 91.8981 59.0232 92.0939C61.2686 92.5907 63.3936 93.0609 65.85 92.9074C71.5874 92.549 88.6419 92.5313 83.0624 93.9798C80.1005 94.7487 75.9256 96.1967 72.0469 97.5419L72.0443 97.5428L72.0415 97.5438C69.5592 98.4047 67.1973 99.2239 65.3544 99.7953C61.4345 100.166 52.856 100.578 47.8674 100.817C44.4142 100.983 42.6811 101.066 45.405 100.996C46.6128 100.965 52.1563 102.385 51.1217 102.66C43.9878 104.555 36.4058 105.226 28.9098 105.89C25.2238 106.216 21.5581 106.54 17.9772 107.008C15.398 107.344 12.9337 108.042 10.4849 108.735C8.10039 109.41 5.73052 110.081 3.28385 110.41C-2.22128 111.151 -7.76016 111.695 -13.2975 112.239C-17.2555 112.628 -21.2128 113.016 -25.1563 113.477C-26.9497 113.686 -28.7423 113.925 -30.5346 114.165C-33.0221 114.497 -35.5091 114.829 -37.9972 115.081C-37.9991 115.421 -38 115.762 -38 116.103C-38 117.591 -37.9825 119.075 -37.9478 120.554C-36.8815 120.705 -35.8162 120.846 -34.7532 120.973C-29.8511 121.561 -24.8707 121.37 -19.8894 121.178C-15.515 121.009 -11.1395 120.841 -6.81459 121.2C-2.47301 121.561 0.701604 121.725 4.86554 120.443C16.0569 116.999 28.4922 116.279 40.1223 116.279C42.3019 116.279 44.5047 116.222 46.7163 116.164C53.5268 115.985 60.4206 115.804 66.9794 117.301C72.5741 118.578 78.3954 118.834 84.1877 119.089C87.4025 119.23 90.6103 119.371 93.7644 119.686C97.4299 120.052 101.068 120.612 104.706 121.172C106.633 121.469 108.56 121.765 110.491 122.033C113.548 122.457 112.95 122.621 110.836 123.201C110.616 123.261 110.381 123.326 110.131 123.396C104.683 124.921 98.9869 125.102 93.351 125.282C91.9215 125.327 90.4947 125.373 89.0779 125.44C88.5869 125.463 68.3359 126.64 68.5656 127.484C68.7274 128.079 73.9975 128.732 75.258 128.888L75.4248 128.909C75.4788 128.916 75.5125 128.92 75.5232 128.922C81.4835 129.976 87.5376 130.348 93.5908 130.72C101.877 131.229 110.163 131.738 118.206 133.995C121.545 134.931 122.12 136.039 118.855 136.039H110.095C104.036 136.039 98.0313 136.636 92.0287 137.233C89.4671 137.487 86.9057 137.742 84.3405 137.95L85.1155 138.19C88.9642 139.379 93.1853 140.683 96.3599 142.928C97.1623 143.495 99.1707 143.411 100.511 143.355C101.571 143.31 102.214 143.283 101.515 143.609C97.7401 145.371 93.5653 145.834 89.4113 146.295C85.2443 146.758 81.0982 147.218 77.3977 148.984C75.771 149.761 78.4901 151.087 78.9118 151.18C82.0085 151.864 85.4382 152.391 88.6092 152.391C89.4993 152.391 90.3923 152.379 91.286 152.366C94.3323 152.324 97.3905 152.281 100.398 152.732C103.684 153.225 106.985 153.574 110.286 153.923C113.59 154.273 116.895 154.623 120.189 155.117C121.726 155.347 123.237 155.656 124.74 155.964C127.675 156.564 130.589 157.161 133.635 157.161C134.189 157.161 134.722 157.171 135.229 157.18L135.231 157.18C137.368 157.221 139.048 157.253 139.908 156.479C145.495 151.451 154.593 151.861 162.234 152.205C164.447 152.304 166.539 152.398 168.387 152.353C175.204 152.187 181.59 150.508 188.096 148.798L188.828 148.606C193.769 147.309 198.962 147.362 204.135 147.415C206.96 147.443 209.779 147.472 212.548 147.281L213.266 147.231C217.203 146.957 221.193 146.678 225.13 147.092C228.615 147.458 227.816 147.897 226.189 148.789C225.893 148.952 225.569 149.13 225.238 149.325C224.515 149.752 223.1 150.149 221.836 150.505C220.07 151.001 218.598 151.415 219.722 151.71C221.594 152.201 223.51 151.84 225.401 151.483C226.575 151.261 227.74 151.041 228.879 151.028L229.523 151.021C233.208 150.979 236.914 150.937 240.595 151.066L240.694 151.07C241.577 151.098 244.86 151.204 242.181 152.088C237.134 153.754 231.842 154.276 226.542 154.799C222.211 155.226 217.876 155.654 213.666 156.706C207.265 158.307 212.31 158.117 215.994 157.978C217.105 157.937 218.092 157.9 218.605 157.918C228.08 158.252 237.671 158.893 247.048 160.416L247.051 160.416C247.201 160.44 253.188 161.373 251.987 162.914C250.803 164.434 246.221 164.942 243.019 165.296C241.927 165.417 240.996 165.52 240.415 165.64C230.835 167.608 220.739 168.433 210.998 169.009C210.419 169.043 207.927 169.02 204.583 168.99C195.426 168.908 179.878 168.769 179.707 169.576C179.642 169.882 179.621 170.111 179.605 170.288C179.586 170.486 179.574 170.619 179.513 170.719C179.391 170.921 179.074 170.991 178.119 171.205L177.774 171.282L177.616 171.318C177.353 171.377 176.863 171.392 176.405 171.406C175.418 171.436 174.581 171.462 176.499 171.923L176.776 171.99C180.691 172.932 184.661 173.886 188.215 175.936C196.461 180.692 189.743 183.549 184.646 184.074C180.713 184.479 176.765 184.556 172.819 184.634C168.279 184.723 163.74 184.811 159.231 185.399C157.13 185.673 155.067 186.043 153.014 186.412C149.078 187.12 145.175 187.822 141.098 187.822C131.437 187.822 121.701 187.813 112.078 186.837C108.05 186.429 103.988 185.925 99.9133 185.42C90.9171 184.304 81.8528 183.18 72.9276 183.052C67.912 182.98 63.3453 183.287 58.4356 184.415C45.5484 187.375 32.087 188.503 18.925 188.503C13.5609 188.503 8.28548 189.354 3.00749 190.205C-2.27598 191.057 -7.56278 191.91 -12.9431 191.91C-16.1377 191.91 -19.1711 191.659 -22.1228 191.203C4.78535 251.433 63.0567 293.143 130.606 293.143ZM83.7974 -2.90374C87.2516 -3.06353 88.9853 -3.14372 86.266 -2.95751C85.0604 -2.87495 79.6605 -0.938454 80.7144 -0.762034C87.9813 0.454413 95.5901 0.40928 103.113 0.364653C106.812 0.342712 110.49 0.320893 114.096 0.449264C116.694 0.541718 119.208 1.00467 121.706 1.4647C124.139 1.91264 126.556 2.3578 129.021 2.45547C134.567 2.67523 140.13 2.69602 145.692 2.7168C149.667 2.73165 153.642 2.7465 157.609 2.834C159.413 2.8738 161.218 2.94345 163.024 3.0131C169.972 3.2811 176.916 3.54895 183.745 2.1148C187.467 1.33317 186.406 1.23489 184.349 1.04444C181.665 0.795827 177.285 0.390147 179.635 -1.89762C180.498 -2.73753 181.448 -3.469 182.398 -4.20037C183.492 -5.0432 184.587 -5.88589 185.547 -6.89422C187.123 -8.54929 182.964 -9.14305 180.456 -9.50114C179.735 -9.60404 179.151 -9.68748 178.878 -9.77105C175.198 -10.898 179.602 -12.1701 182.88 -13.1169C184.246 -13.5114 185.416 -13.8495 185.725 -14.097C191.887 -13.8444 202.299 -13.7686 206.961 -14.8812C207.961 -15.1199 209.189 -15.3025 210.484 -15.4951C213.299 -15.9138 216.428 -16.3793 218.208 -17.5688C220.194 -18.8955 215.763 -18.3821 212.033 -17.9497C210.715 -17.7971 209.485 -17.6545 208.655 -17.6066C203.857 -17.3298 199.074 -17.2659 194.271 -17.2659C191.052 -17.2659 187.827 -17.204 184.596 -17.1419C179.235 -17.0389 173.856 -16.9356 168.46 -17.1145C159.316 -17.4177 150.144 -16.6396 140.97 -15.8614C133.186 -15.201 125.4 -14.5405 117.629 -14.5405C114.937 -14.5405 112.289 -14.2097 109.639 -13.8785C107.53 -13.6149 105.419 -13.3511 103.282 -13.2535C100.907 -13.1451 98.5268 -13.1777 96.1466 -13.2103C93.3784 -13.2481 90.6105 -13.286 87.8522 -13.1021L87.7403 -13.0947C83.4945 -12.8117 78.7467 -12.4952 74.622 -11.3609C73.6902 -11.1046 72.8074 -10.8205 71.9429 -10.5423C69.7489 -9.83616 67.6727 -9.16796 65.213 -9.08969C59.4681 -8.9069 42.4807 -7.3198 48.1614 -6.40213C51.1776 -5.91489 55.4606 -4.8652 59.4392 -3.89013C61.9865 -3.26583 64.4091 -2.67208 66.2945 -2.27615C70.2301 -2.27615 78.8084 -2.67296 83.7974 -2.90374ZM226.139 203.91C229.417 202.671 233.471 201.541 236.954 201.449C241.616 201.449 246.04 207.189 242.434 210.307C240.282 212.167 238.924 214.128 237.374 216.364L237.367 216.375C237.231 216.571 237.094 216.769 236.954 216.969C236.438 217.711 236.081 218.478 235.738 219.215C235.016 220.768 234.359 222.182 232.412 222.912C231.526 223.244 230.522 223.197 229.524 223.149C228.357 223.094 227.198 223.039 226.247 223.593C224.955 224.347 225.501 226.028 226.028 227.651C226.29 228.46 226.549 229.256 226.572 229.915C226.679 232.944 225.106 232.891 222.902 232.817C222.543 232.804 222.166 232.792 221.777 232.792C220.442 232.792 219.987 232.508 219.073 231.429C218.873 231.192 218.817 230.474 218.773 229.922C218.741 229.504 218.715 229.181 218.641 229.233C218.144 229.581 217.466 229.555 216.771 229.527C216.114 229.501 215.441 229.475 214.892 229.763C213.444 230.523 212.588 230.655 210.998 230.748C209.764 230.82 208.504 230.921 207.229 231.023C204.734 231.224 202.181 231.429 199.643 231.429C198.826 231.429 202.441 227.056 203.356 226.129C205.13 224.333 207.409 224.198 209.656 224.064C210.34 224.023 211.021 223.983 211.683 223.896C214.458 223.532 217.351 221.202 213.954 219.164C212.878 218.518 210.226 215.255 209.845 214.016C209.351 212.414 212.373 211.699 213.938 211.329C214.26 211.253 214.52 211.191 214.675 211.14C217.076 210.34 217.969 209.339 219.297 207.85C219.63 207.477 219.99 207.074 220.407 206.635C221.479 205.51 223.347 204.874 224.951 204.328C225.372 204.185 225.774 204.048 226.139 203.91Z" fill="#CD8B82"/>
</g>
<g filter="url(#filter11_f_110_296)">
<path fill-rule="evenodd" clip-rule="evenodd" d="M147.85 293.142C240.968 293.142 316.455 213.879 316.455 116.102C316.455 110.441 316.202 104.841 315.707 99.3155C315.668 99.314 315.629 99.3125 315.589 99.3109C313.784 99.2413 311.978 99.1716 310.174 99.1318C306.207 99.0443 302.233 99.0295 298.258 99.0146C292.696 98.9938 287.133 98.973 281.587 98.7533C279.122 98.6556 276.705 98.2105 274.272 97.7626C271.774 97.3026 269.26 96.8396 266.662 96.7471C263.056 96.6187 259.377 96.6405 255.678 96.6625C248.156 96.7071 240.547 96.7522 233.28 95.5358C232.226 95.3594 237.626 93.4229 238.832 93.3403C241.551 93.1541 239.817 93.2343 236.363 93.3941C231.374 93.6249 222.796 94.0217 218.86 94.0217C216.975 93.6258 214.552 93.0321 212.005 92.4078C208.027 91.4329 203.743 90.3829 200.727 89.8957C195.046 88.978 212.034 87.3909 217.779 87.2081C220.238 87.1299 222.314 86.4617 224.509 85.7555C225.373 85.4773 226.256 85.1932 227.188 84.937C231.312 83.8026 236.06 83.4862 240.306 83.2032L240.418 83.1957C243.176 83.0118 245.944 83.0497 248.712 83.0876C251.092 83.1201 253.473 83.1527 255.847 83.0443C257.984 82.9467 260.095 82.6829 262.204 82.4194C264.855 82.0881 267.503 81.7573 270.195 81.7573C277.965 81.7573 285.751 81.0969 293.535 80.4365C299.954 79.8919 306.373 79.3474 312.782 79.1734C296.605 -0.876853 228.907 -60.937 147.85 -60.937C70.9129 -60.937 6.01193 -6.82822 -14.2212 67.125C-13.4546 66.8064 -12.7084 66.4571 -11.9649 66.1092C-9.99563 65.1876 -8.0462 64.2753 -5.79324 63.9655C-3.87156 63.7013 -1.90685 63.7445 0.0481223 63.7876C1.01351 63.8088 1.97653 63.83 2.93081 63.8141C6.81856 63.7493 11.0153 62.7772 15.1173 61.827C17.4301 61.2913 19.7128 60.7626 21.893 60.4073C22.9609 60.2333 24.0223 60.0579 25.0788 59.8832C33.9729 58.413 42.5169 57.0006 51.6701 57.0006C52.2472 57.0006 53.0038 56.925 53.828 56.8427C56.6469 56.5612 60.2566 56.2007 60.1779 58.5147C60.1716 58.6986 60.1963 59.0385 60.227 59.4608C60.3415 61.0342 60.5391 63.7517 59.529 63.8141C54.262 64.1394 48.988 65.1449 43.7166 66.1499C37.5872 67.3185 31.4612 68.4864 25.3538 68.5836C21.4462 68.6458 17.5353 68.625 13.6252 68.6043C11.6707 68.5939 9.71515 68.5836 7.76148 68.5836C7.52207 68.5836 7.27321 68.5816 7.01707 68.5795C4.18315 68.5563 0.459838 68.526 -1.17887 71.1576C-1.84506 72.2274 -1.49367 73.6508 -1.16536 74.9806C-0.995145 75.67 -0.831142 76.3344 -0.818366 76.9112C-0.707592 81.9129 -4.46178 82.2793 -8.57339 82.6806L-8.59505 82.6827C-8.79001 82.7018 -8.98576 82.7209 -9.18192 82.7406C-10.914 82.9147 -12.6982 82.8494 -14.4844 82.784C-15.5804 82.7439 -16.6772 82.7037 -17.7631 82.7188C-18.4698 86.6076 -19.0554 90.5415 -19.5155 94.516C-10.7289 93.4603 -1.83343 93.3752 7.06357 93.2901C14.8728 93.2153 22.6839 93.1406 30.4231 92.4095C33.1047 92.1561 35.7697 92.2365 38.4379 92.317C40.5609 92.3811 42.686 92.4452 44.823 92.3413C47.1969 92.2259 49.5646 91.9695 51.9322 91.7131C54.6858 91.415 57.4406 91.1167 60.2032 91.0403L60.3153 91.0372C64.5682 90.9196 69.3238 90.7881 73.5288 91.5297C74.4787 91.6973 75.3822 91.8972 76.2669 92.0929C78.5124 92.5898 80.6373 93.0599 83.0938 92.9065C88.8312 92.548 105.886 92.5303 100.306 93.9788C97.3443 94.7477 93.1693 96.1957 89.2907 97.5409L89.288 97.5418L89.2853 97.5428C86.803 98.4037 84.4411 99.2229 82.5981 99.7943C78.6782 100.165 70.0998 100.577 65.1112 100.816C61.6579 100.982 59.9248 101.065 62.6487 100.995C63.8565 100.964 69.4 102.384 68.3654 102.659C61.2316 104.554 53.6496 105.225 46.1535 105.889C42.4676 106.215 38.8019 106.539 35.221 107.007C32.6418 107.343 30.1774 108.041 27.7286 108.734C25.3441 109.409 22.9743 110.08 20.5276 110.409C15.0225 111.15 9.48358 111.694 3.94626 112.238C-0.0117885 112.627 -3.96904 113.015 -7.91258 113.476C-9.706 113.685 -11.4986 113.924 -13.2909 114.164C-15.7784 114.496 -18.2654 114.828 -20.7535 115.08C-20.7553 115.42 -20.7563 115.761 -20.7563 116.102C-20.7563 117.59 -20.7388 119.074 -20.704 120.553C-19.6377 120.704 -18.5724 120.845 -17.5094 120.972C-12.6073 121.56 -7.62698 121.369 -2.64567 121.177C1.72875 121.008 6.10426 120.84 10.4292 121.199C14.7707 121.56 17.9453 121.724 22.1093 120.442C33.3007 116.998 45.736 116.278 57.366 116.278C59.5457 116.278 61.7485 116.221 63.96 116.163C70.7705 115.984 77.6644 115.803 84.2231 117.3C89.8178 118.577 95.6391 118.833 101.431 119.088C104.646 119.229 107.854 119.37 111.008 119.685C114.674 120.051 118.311 120.611 121.95 121.171C123.877 121.468 125.804 121.764 127.735 122.032C130.792 122.456 130.193 122.62 128.079 123.2C127.86 123.26 127.624 123.325 127.375 123.395C121.927 124.92 116.231 125.101 110.595 125.281C109.165 125.326 107.738 125.372 106.322 125.439C105.831 125.462 85.5797 126.639 85.8093 127.483C85.9712 128.078 91.2412 128.731 92.5017 128.887L92.6686 128.908C92.7225 128.915 92.7562 128.919 92.7669 128.921C98.7272 129.975 104.781 130.347 110.835 130.719C119.12 131.228 127.406 131.737 135.45 133.994C138.789 134.93 139.364 136.038 136.099 136.038H127.339C121.28 136.038 115.275 136.635 109.272 137.232C106.711 137.486 104.149 137.741 101.584 137.949L102.359 138.189C106.208 139.378 110.429 140.682 113.604 142.927C114.406 143.494 116.414 143.41 117.755 143.354C118.815 143.309 119.457 143.282 118.759 143.608C114.984 145.37 110.809 145.833 106.655 146.294C102.488 146.757 98.3419 147.217 94.6415 148.983C93.0147 149.76 95.7338 151.086 96.1556 151.179C99.2523 151.863 102.682 152.39 105.853 152.39C106.743 152.39 107.636 152.378 108.53 152.365C111.576 152.323 114.634 152.28 117.641 152.731C120.928 153.224 124.229 153.573 127.53 153.922C130.834 154.272 134.139 154.622 137.433 155.116C138.969 155.346 140.48 155.655 141.984 155.963C144.919 156.563 147.833 157.16 150.879 157.16C151.433 157.16 151.966 157.17 152.473 157.179L152.475 157.18C154.612 157.22 156.292 157.252 157.152 156.478C162.739 151.45 171.836 151.86 179.478 152.204C181.691 152.303 183.783 152.397 185.631 152.352C192.448 152.186 198.834 150.507 205.34 148.797L206.071 148.605C211.012 147.308 216.206 147.361 221.378 147.414C224.204 147.442 227.023 147.471 229.792 147.28L230.51 147.23C234.447 146.956 238.437 146.677 242.374 147.091C245.859 147.457 245.059 147.896 243.433 148.788C243.136 148.951 242.812 149.129 242.482 149.324C241.759 149.751 240.344 150.148 239.08 150.504C237.314 151 235.842 151.414 236.966 151.709C238.838 152.2 240.754 151.839 242.645 151.482C243.819 151.26 244.984 151.04 246.123 151.027L246.767 151.02C250.452 150.978 254.158 150.936 257.839 151.065L257.938 151.069C258.821 151.097 262.104 151.203 259.425 152.087C254.378 153.753 249.085 154.275 243.786 154.798C239.455 155.225 235.119 155.653 230.91 156.705C224.509 158.306 229.553 158.116 233.238 157.977C234.349 157.936 235.336 157.899 235.849 157.917C245.324 158.251 254.914 158.892 264.292 160.415L264.295 160.415C264.445 160.439 270.431 161.372 269.231 162.913C268.046 164.433 263.464 164.941 260.263 165.295C259.171 165.416 258.24 165.519 257.659 165.639C248.079 167.607 237.983 168.432 228.242 169.008C227.663 169.042 225.171 169.019 221.827 168.99C212.67 168.907 197.122 168.768 196.951 169.575C196.886 169.881 196.865 170.11 196.849 170.287C196.83 170.485 196.818 170.618 196.757 170.718C196.635 170.92 196.318 170.99 195.363 171.204L195.018 171.281L194.86 171.317C194.597 171.376 194.107 171.391 193.649 171.405C192.661 171.435 191.824 171.461 193.742 171.922L194.02 171.989C197.935 172.931 201.905 173.885 205.459 175.935C213.705 180.691 206.987 183.548 201.89 184.073C197.957 184.478 194.009 184.555 190.063 184.633C185.523 184.722 180.984 184.81 176.475 185.398C174.373 185.672 172.311 186.042 170.258 186.411C166.321 187.119 162.419 187.821 158.341 187.821C148.681 187.821 138.945 187.812 129.321 186.836C125.293 186.428 121.232 185.924 117.157 185.419C108.161 184.303 99.0966 183.179 90.1713 183.051C85.1557 182.979 80.589 183.286 75.6793 184.414C62.7921 187.374 49.3307 188.502 36.1687 188.502C30.8046 188.502 25.5292 189.353 20.2512 190.204C14.9678 191.056 9.68097 191.909 4.30069 191.909C1.10601 191.909 -1.92733 191.658 -4.87907 191.202C22.0291 251.432 80.3004 293.142 147.85 293.142ZM101.041 -2.90472C104.495 -3.0645 106.229 -3.14469 103.51 -2.95848C102.304 -2.87593 96.9042 -0.939431 97.9581 -0.76301C105.225 0.453437 112.834 0.408303 120.356 0.363676C124.055 0.341735 127.734 0.319916 131.34 0.448287C133.938 0.540741 136.452 1.00369 138.95 1.46372C141.382 1.91166 143.8 2.35683 146.265 2.4545C151.811 2.67425 157.374 2.69504 162.936 2.71582C166.911 2.73067 170.886 2.74552 174.852 2.83302C176.656 2.87282 178.462 2.94248 180.268 3.01212C187.215 3.28012 194.159 3.54797 200.988 2.11382C204.71 1.33219 203.649 1.23391 201.593 1.04346C198.909 0.79485 194.529 0.389171 196.879 -1.8986C197.741 -2.7385 198.691 -3.46998 199.641 -4.20134C200.736 -5.04418 201.831 -5.88687 202.791 -6.8952C204.367 -8.55027 200.208 -9.14403 197.7 -9.50212C196.979 -9.60501 196.395 -9.68845 196.122 -9.77203C192.442 -10.899 196.846 -12.171 200.124 -13.1178C201.49 -13.5124 202.66 -13.8504 202.969 -14.098C209.131 -13.8454 219.542 -13.7696 224.204 -14.8822C225.205 -15.1208 226.433 -15.3035 227.727 -15.4961C230.543 -15.9148 233.672 -16.3803 235.452 -17.5697C237.438 -18.8964 233.007 -18.383 229.276 -17.9507C227.959 -17.7981 226.729 -17.6555 225.899 -17.6076C221.101 -17.3308 216.318 -17.2669 211.515 -17.2669C208.296 -17.2669 205.071 -17.205 201.84 -17.1429C196.479 -17.0399 191.1 -16.9366 185.703 -17.1155C176.56 -17.4187 167.388 -16.6406 158.214 -15.8624C150.429 -15.202 142.644 -14.5415 134.873 -14.5415C132.181 -14.5415 129.533 -14.2107 126.883 -13.8794C124.774 -13.6159 122.663 -13.3521 120.525 -13.2545C118.151 -13.1461 115.771 -13.1787 113.39 -13.2112C110.622 -13.2491 107.854 -13.287 105.096 -13.1031L104.984 -13.0956C100.738 -12.8126 95.9905 -12.4962 91.8657 -11.3619C90.9339 -11.1056 90.0511 -10.8215 89.1867 -10.5433C86.9926 -9.83714 84.9164 -9.16893 82.4567 -9.09067C76.7118 -8.90787 59.7245 -7.32077 65.4052 -6.40311C68.4214 -5.91586 72.7044 -4.86618 76.6829 -3.8911C79.2302 -3.26681 81.6529 -2.67306 83.5382 -2.27713C87.4739 -2.27713 96.0521 -2.67394 101.041 -2.90472ZM243.383 203.909C246.66 202.67 250.715 201.54 254.198 201.448C258.859 201.448 263.284 207.188 259.677 210.306C257.526 212.166 256.168 214.127 254.618 216.363L254.61 216.374C254.475 216.57 254.337 216.768 254.198 216.968C253.682 217.71 253.325 218.477 252.982 219.214C252.26 220.767 251.602 222.181 249.656 222.911C248.77 223.243 247.766 223.196 246.768 223.148C245.6 223.093 244.442 223.038 243.491 223.592C242.199 224.346 242.744 226.027 243.271 227.65C243.534 228.459 243.792 229.255 243.816 229.914C243.922 232.944 242.349 232.89 240.146 232.816C239.787 232.803 239.409 232.791 239.021 232.791C237.686 232.791 237.231 232.507 236.317 231.428C236.117 231.191 236.061 230.473 236.017 229.921C235.984 229.503 235.959 229.18 235.885 229.232C235.388 229.58 234.71 229.554 234.014 229.526C233.358 229.5 232.685 229.474 232.135 229.762C230.688 230.522 229.831 230.654 228.242 230.747C227.007 230.819 225.748 230.92 224.473 231.022C221.978 231.223 219.425 231.428 216.886 231.428C216.07 231.428 219.685 227.055 220.599 226.128C222.374 224.332 224.653 224.197 226.9 224.063C227.584 224.023 228.265 223.982 228.927 223.895C231.702 223.531 234.594 221.201 231.198 219.164C230.121 218.518 227.47 215.254 227.088 214.015C226.595 212.413 229.616 211.698 231.181 211.328C231.503 211.252 231.764 211.19 231.919 211.139C234.32 210.339 235.213 209.338 236.541 207.849C236.873 207.476 237.233 207.073 237.651 206.634C238.722 205.509 240.591 204.873 242.195 204.327C242.615 204.184 243.018 204.047 243.383 203.909Z" fill="#CB3724"/>
</g>
<g filter="url(#filter12_f_110_296)">
<path d="M103.866 565.321L107.12 572.034C118.431 568.333 129.579 563.169 138.123 558.005V589.851C138.123 593.121 137.878 597.425 137.634 599.06H145.609C145.283 597.339 145.12 593.121 145.12 589.851V553.53C153.42 547.677 160.906 541.136 167.09 534.336L161.639 529C156.024 536.144 147.887 543.632 139.424 549.226C130.392 555.251 117.943 561.276 103.866 565.321Z" fill="#3A3531"/>
<path d="M115.664 633.818V640.962C117.861 640.79 120.465 640.704 122.988 640.704H154.885C157.651 640.704 160.418 640.79 162.371 640.962V633.818C160.418 634.163 157.57 634.249 154.966 634.249H122.988C120.384 634.249 117.78 634.163 115.664 633.818ZM168.311 656.54L163.673 653.442C162.778 653.958 161.069 654.13 159.197 654.13H116.315C114.118 654.13 111.352 653.958 108.341 653.614V660.844C111.27 660.672 114.362 660.586 116.315 660.586H159.523C158.058 666.783 154.803 674.098 149.84 679.607C142.923 687.353 132.752 692.861 121.198 695.357L126.242 701.468C136.658 698.456 146.829 693.378 155.373 683.48C161.395 676.508 165.056 667.557 167.253 659.036C167.416 658.434 167.904 657.315 168.311 656.54Z" fill="#3A3531"/>
<path d="M161.964 741.907L157.814 738.55C156.512 738.981 154.397 739.239 151.711 739.239H120.302C117.861 739.239 113.223 738.895 112.084 738.723V746.555C112.979 746.469 117.454 746.124 120.302 746.124H152.037C150.003 753.268 144.063 763.424 138.529 770.052C130.148 779.949 118.105 790.192 105.005 795.614L110.212 801.381C122.255 795.614 133.24 786.146 141.947 776.249C150.247 784.081 158.872 794.237 164.324 801.811L170.02 796.647C164.731 789.847 154.803 778.658 146.26 770.912C152.037 763.166 157.163 753.096 159.93 745.694C160.418 744.489 161.476 742.596 161.964 741.907Z" fill="#3A3531"/>
<path d="M124.29 893.461C124.29 896.645 124.127 900.862 123.72 903.617H131.613C131.287 900.776 131.125 896.129 131.125 893.461C131.125 890.965 131.125 877.968 131.043 865.058C140.075 868.07 154.153 873.837 163.022 878.915L165.789 871.599C157.245 867.038 141.784 860.841 131.043 857.398C131.043 851.975 131.043 846.984 131.043 843.369C131.043 840.787 131.369 837.086 131.613 834.417H123.639C124.127 837.086 124.29 840.959 124.29 843.369V893.461Z" fill="#3A3531"/>
<path d="M131.369 935.707L123.883 934.932C123.883 940.785 122.988 947.498 121.767 953.695C116.803 954.126 112.084 954.556 109.399 954.642C106.795 954.728 104.679 954.728 102.075 954.642L102.808 962.044C104.842 961.7 108.26 961.269 110.131 961.011C112.247 960.753 116.153 960.323 120.465 959.892C117.699 971.426 111.596 991.049 103.296 1002.75L109.887 1005.59C118.512 991.049 124.045 971.512 127.056 959.204C130.555 958.86 133.81 958.601 135.763 958.601C140.971 958.601 144.388 960.064 144.388 967.897C144.388 977.192 143.168 988.467 140.564 994.234C138.936 998.021 136.414 998.709 133.403 998.709C131.125 998.709 126.893 998.021 123.476 996.902L124.534 1004.13C127.138 1004.73 130.962 1005.34 134.135 1005.34C139.343 1005.34 143.412 1003.96 146.015 998.193C149.352 991.049 150.735 977.364 150.735 967.122C150.735 955.417 144.795 952.49 137.472 952.49C135.519 952.49 132.183 952.749 128.358 953.093C129.253 948.445 129.986 943.367 130.474 940.871C130.718 939.15 131.043 937.342 131.369 935.707ZM159.36 945.691L153.42 948.531C159.198 955.589 165.544 970.565 167.986 979.43L174.251 976.245C171.566 968.241 164.405 952.663 159.36 945.691ZM160.337 933.211L155.943 935.105C158.14 938.375 160.906 943.625 162.534 947.068L167.009 945.002C165.3 941.56 162.371 936.223 160.337 933.211ZM169.287 929.682L164.975 931.662C167.253 934.932 169.938 939.838 171.729 943.539L176.123 941.474C174.577 938.289 171.403 932.867 169.287 929.682Z" fill="#3A3531"/>
<path d="M167.009 1036.48C163.673 1040.87 157.896 1046.81 153.583 1050.51L158.058 1053.69C162.452 1050.08 167.904 1044.66 172.135 1039.66L167.009 1036.48ZM174.821 1069.79C170.833 1066.09 162.696 1060.84 156.431 1057.48L152.851 1061.7C159.279 1065.31 167.253 1070.82 171.159 1074.69L174.821 1069.79ZM120.302 1050.25C117.699 1046.21 111.921 1040.87 106.876 1037.25L102.808 1040.96C107.771 1044.74 113.386 1050.34 115.827 1054.38L120.302 1050.25ZM119.57 1058.26C112.409 1062.56 105.005 1066.95 100.123 1069.62L103.215 1074.87C108.422 1071.6 115.176 1067.38 121.279 1063.42L119.57 1058.26ZM128.195 1059.37H146.911V1068.24H128.195V1059.37ZM128.195 1045.95H146.911V1054.64H128.195V1045.95ZM173.437 1086.4V1080.63H140.401V1073.4H152.688V1040.78H138.692C139.587 1038.46 140.564 1035.79 141.459 1033.12L134.949 1032.09C134.542 1034.59 133.729 1037.94 132.833 1040.78H122.662V1073.4H134.38V1080.63H101.75V1086.4H128.602C121.523 1093.97 110.375 1100.6 100.123 1103.96C101.506 1105.25 103.296 1107.66 104.191 1109.29C114.932 1105.16 126.893 1097.24 134.38 1088.04V1110.5H140.401V1088.38C148.05 1097.33 159.848 1104.82 170.996 1108.69C171.81 1106.97 173.6 1104.56 174.983 1103.27C164.324 1100.17 153.013 1093.89 146.015 1086.4H173.437Z" fill="#3A3531"/>
<path d="M124.534 1138.63L116.315 1138.54C116.803 1141.04 116.966 1144.14 116.966 1147.32C116.966 1156.36 116.153 1178.14 116.153 1190.87C116.153 1204.9 124.208 1210.07 135.926 1210.07C153.827 1210.07 164.324 1199.22 169.938 1191.05L165.3 1185.19C159.442 1194.14 151.06 1203.01 136.17 1203.01C128.439 1203.01 122.825 1199.65 122.825 1190.19C122.825 1177.36 123.395 1157.05 123.801 1147.32C123.883 1144.48 124.127 1141.47 124.534 1138.63Z" fill="#3A3531"/>
<path d="M115.013 1247.15L107.12 1246.98C107.609 1249.04 107.69 1252.66 107.69 1254.64C107.69 1259.63 107.853 1270.13 108.585 1277.62C110.782 1299.91 118.187 1308 125.917 1308C131.369 1308 136.332 1303.01 141.215 1288.38L136.088 1282.27C133.973 1290.87 130.148 1299.82 125.998 1299.82C120.221 1299.82 116.234 1290.27 114.932 1275.9C114.362 1268.75 114.281 1260.92 114.362 1255.5C114.362 1253.26 114.688 1249.22 115.013 1247.15ZM157.407 1249.56L151.06 1251.88C158.872 1261.95 163.754 1279.6 165.219 1295.18L171.729 1292.34C170.508 1277.79 164.649 1259.54 157.407 1249.56Z" fill="#3A3531"/>
</g>
</g>
<defs>
<filter id="filter0_f_110_296" x="183.463" y="509.628" width="825.739" height="430.015" filterUnits="userSpaceOnUse" color-interpolation-filters="sRGB">
<feFlood flood-opacity="0" result="BackgroundImageFix"/>
<feBlend mode="normal" in="SourceGraphic" in2="BackgroundImageFix" result="shape"/>
<feGaussianBlur stdDeviation="1.89723" result="effect1_foregroundBlur_110_296"/>
</filter>
<filter id="filter1_f_110_296" x="667.225" y="1103.1" width="216.794" height="224.794" filterUnits="userSpaceOnUse" color-interpolation-filters="sRGB">
<feFlood flood-opacity="0" result="BackgroundImageFix"/>
<feBlend mode="normal" in="SourceGraphic" in2="BackgroundImageFix" result="shape"/>
<feGaussianBlur stdDeviation="0.948617" result="effect1_foregroundBlur_110_296"/>
</filter>
<filter id="filter2_f_110_296" x="269.225" y="128.103" width="835.794" height="705.794" filterUnits="userSpaceOnUse" color-interpolation-filters="sRGB">
<feFlood flood-opacity="0" result="BackgroundImageFix"/>
<feBlend mode="normal" in="SourceGraphic" in2="BackgroundImageFix" result="shape"/>
<feGaussianBlur stdDeviation="0.948617" result="effect1_foregroundBlur_110_296"/>
</filter>
<filter id="filter3_f_110_296" x="444.203" y="174.12" width="79.0993" height="138.919" filterUnits="userSpaceOnUse" color-interpolation-filters="sRGB">
<feFlood flood-opacity="0" result="BackgroundImageFix"/>
<feBlend mode="normal" in="SourceGraphic" in2="BackgroundImageFix" result="shape"/>
<feGaussianBlur stdDeviation="0.948617" result="effect1_foregroundBlur_110_296"/>
</filter>
<filter id="filter4_f_110_296" x="295.246" y="145.874" width="786.003" height="668.782" filterUnits="userSpaceOnUse" color-interpolation-filters="sRGB">
<feFlood flood-opacity="0" result="BackgroundImageFix"/>
<feBlend mode="normal" in="SourceGraphic" in2="BackgroundImageFix" result="shape"/>
<feGaussianBlur stdDeviation="5.6917" result="effect1_foregroundBlur_110_296"/>
</filter>
<filter id="filter5_f_110_296" x="433.404" y="165.673" width="100.408" height="150.809" filterUnits="userSpaceOnUse" color-interpolation-filters="sRGB">
<feFlood flood-opacity="0" result="BackgroundImageFix"/>
<feBlend mode="normal" in="SourceGraphic" in2="BackgroundImageFix" result="shape"/>
<feGaussianBlur stdDeviation="5.6917" result="effect1_foregroundBlur_110_296"/>
</filter>
<filter id="filter6_f_110_296" x="13.5212" y="279.161" width="870.204" height="986.737" filterUnits="userSpaceOnUse" color-interpolation-filters="sRGB">
<feFlood flood-opacity="0" result="BackgroundImageFix"/>
<feBlend mode="normal" in="SourceGraphic" in2="BackgroundImageFix" result="shape"/>
<feGaussianBlur stdDeviation="0.948617" result="effect1_foregroundBlur_110_296"/>
</filter>
<filter id="filter7_f_110_296" x="90.5312" y="286.316" width="307.476" height="646.96" filterUnits="userSpaceOnUse" color-interpolation-filters="sRGB">
<feFlood flood-opacity="0" result="BackgroundImageFix"/>
<feBlend mode="normal" in="SourceGraphic" in2="BackgroundImageFix" result="shape"/>
<feGaussianBlur stdDeviation="1.89723" result="effect1_foregroundBlur_110_296"/>
</filter>
<filter id="filter8_f_110_296" x="298.739" y="150.617" width="777.767" height="660.767" filterUnits="userSpaceOnUse" color-interpolation-filters="sRGB">
<feFlood flood-opacity="0" result="BackgroundImageFix"/>
<feBlend mode="normal" in="SourceGraphic" in2="BackgroundImageFix" result="shape"/>
<feGaussianBlur stdDeviation="5.6917" result="effect1_foregroundBlur_110_296"/>
</filter>
<filter id="filter9_f_110_296" x="438.083" y="170.506" width="91.0738" height="144.772" filterUnits="userSpaceOnUse" color-interpolation-filters="sRGB">
<feFlood flood-opacity="0" result="BackgroundImageFix"/>
<feBlend mode="normal" in="SourceGraphic" in2="BackgroundImageFix" result="shape"/>
<feGaussianBlur stdDeviation="5.6917" result="effect1_foregroundBlur_110_296"/>
</filter>
<filter id="filter10_f_110_296" x="-43.6917" y="-66.6277" width="348.595" height="365.463" filterUnits="userSpaceOnUse" color-interpolation-filters="sRGB">
<feFlood flood-opacity="0" result="BackgroundImageFix"/>
<feBlend mode="normal" in="SourceGraphic" in2="BackgroundImageFix" result="shape"/>
<feGaussianBlur stdDeviation="2.84585" result="effect1_foregroundBlur_110_296"/>
</filter>
<filter id="filter11_f_110_296" x="-24.5507" y="-64.7315" width="344.801" height="361.668" filterUnits="userSpaceOnUse" color-interpolation-filters="sRGB">
<feFlood flood-opacity="0" result="BackgroundImageFix"/>
<feBlend mode="normal" in="SourceGraphic" in2="BackgroundImageFix" result="shape"/>
<feGaussianBlur stdDeviation="1.89723" result="effect1_foregroundBlur_110_296"/>
</filter>
<filter id="filter12_f_110_296" x="97.8901" y="526.767" width="80.465" height="783.465" filterUnits="userSpaceOnUse" color-interpolation-filters="sRGB">
<feFlood flood-opacity="0" result="BackgroundImageFix"/>
<feBlend mode="normal" in="SourceGraphic" in2="BackgroundImageFix" result="shape"/>
<feGaussianBlur stdDeviation="1.11625" result="effect1_foregroundBlur_110_296"/>
</filter>
<linearGradient id="paint0_linear_110_296" x1="595.39" y1="805.135" x2="517.122" y2="1029.24" gradientUnits="userSpaceOnUse">
<stop stop-color="#949084"/>
<stop offset="1" stop-color="#D6D1C2"/>
</linearGradient>
<linearGradient id="paint1_linear_110_296" x1="1016.18" y1="332.532" x2="339.408" y2="769.699" gradientUnits="userSpaceOnUse">
<stop stop-color="#CB3724"/>
<stop offset="1" stop-color="#CB3724" stop-opacity="0"/>
</linearGradient>
<linearGradient id="paint2_linear_110_296" x1="490.527" y1="187.379" x2="495.111" y2="298.193" gradientUnits="userSpaceOnUse">
<stop stop-color="#CB3724"/>
<stop offset="1" stop-color="#CB3724" stop-opacity="0"/>
</linearGradient>
<linearGradient id="paint3_linear_110_296" x1="602.095" y1="775.963" x2="80.3479" y2="831.681" gradientUnits="userSpaceOnUse">
<stop stop-color="#949084"/>
<stop offset="1" stop-color="#D6D1C2"/>
</linearGradient>
<linearGradient id="paint4_linear_110_296" x1="1110.07" y1="11.8391" x2="322.821" y2="762.055" gradientUnits="userSpaceOnUse">
<stop stop-color="#CB3724"/>
<stop offset="1" stop-color="#CB3724" stop-opacity="0"/>
</linearGradient>
<linearGradient id="paint5_linear_110_296" x1="461.507" y1="153.74" x2="496.725" y2="298.239" gradientUnits="userSpaceOnUse">
<stop stop-color="#CB3724"/>
<stop offset="1" stop-color="#CB3724" stop-opacity="0"/>
</linearGradient>
<clipPath id="clip0_110_296">
<rect width="906" height="1257" fill="white"/>
</clipPath>
</defs>
</svg>
