<svg width="42" height="42" viewBox="0 0 42 42" fill="none" xmlns="http://www.w3.org/2000/svg">
<path d="M20.5794 0C14.9947 0 14.2924 0.0257243 12.0981 0.123476C9.90384 0.226374 8.40926 0.571079 7.0999 1.08042C5.72582 1.59574 4.48153 2.40624 3.45477 3.45477C2.40624 4.48153 1.59574 5.72582 1.08042 7.0999C0.571079 8.40669 0.223801 9.90384 0.123476 12.0904C0.0257243 14.2898 0 14.9895 0 20.582C0 26.1693 0.0257243 26.869 0.123476 29.0633C0.226374 31.255 0.571079 32.7496 1.08042 34.0589C1.60777 35.412 2.31004 36.5593 3.45477 37.7041C4.59693 38.8488 5.74423 39.5536 7.09733 40.0784C8.40926 40.5878 9.90127 40.935 12.093 41.0354C14.2898 41.1331 14.9895 41.1588 20.5794 41.1588C26.1693 41.1588 26.8664 41.1331 29.0633 41.0354C31.2524 40.9325 32.7521 40.5878 34.0615 40.0784C35.4347 39.5628 36.678 38.7523 37.7041 37.7041C38.8488 36.5593 39.5511 35.412 40.0784 34.0589C40.5852 32.7496 40.9325 31.255 41.0354 29.0633C41.1331 26.869 41.1588 26.1693 41.1588 20.5794C41.1588 14.9895 41.1331 14.2898 41.0354 12.093C40.9325 9.90384 40.5852 8.40669 40.0784 7.0999C39.5631 5.72582 38.7526 4.48153 37.7041 3.45477C36.6773 2.40624 35.433 1.59574 34.0589 1.08042C32.747 0.571079 31.2498 0.223801 29.0607 0.123476C26.8639 0.0257243 26.1667 0 20.5743 0H20.5794ZM18.735 3.70944H20.582C26.0767 3.70944 26.7275 3.72745 28.8961 3.82777C30.9026 3.91781 31.9933 4.25479 32.7187 4.53519C33.6782 4.90819 34.3651 5.35579 35.0853 6.07607C35.8056 6.79635 36.2506 7.48062 36.6236 8.44271C36.9066 9.16556 37.241 10.2563 37.3311 12.2628C37.4314 14.4313 37.452 15.0821 37.452 20.5743C37.452 26.0664 37.4314 26.7198 37.3311 28.8884C37.241 30.8948 36.904 31.983 36.6236 32.7084C36.2914 33.6008 35.7651 34.4082 35.0828 35.0725C34.3625 35.7927 33.6782 36.2378 32.7161 36.6108C31.9958 36.8937 30.9051 37.2282 28.8961 37.3208C26.7275 37.4185 26.0767 37.4417 20.582 37.4417C15.0873 37.4417 14.4339 37.4185 12.2653 37.3208C10.2588 37.2282 9.1707 36.8937 8.44528 36.6108C7.55222 36.2796 6.74387 35.7542 6.07864 35.0725C5.39508 34.4078 4.86788 33.5994 4.53519 32.7058C4.25479 31.983 3.91781 30.8923 3.82777 28.8858C3.73002 26.7172 3.70944 26.0664 3.70944 20.5691C3.70944 15.0718 3.73002 14.4262 3.82777 12.2576C3.92038 10.2511 4.25479 9.16041 4.53776 8.43499C4.91076 7.47547 5.35837 6.78863 6.07864 6.06836C6.79892 5.34808 7.48319 4.90305 8.44528 4.53004C9.1707 4.24708 10.2588 3.91266 12.2653 3.82005C14.1638 3.73259 14.8995 3.70687 18.735 3.7043V3.70944ZM31.5663 7.12562C31.2419 7.12562 30.9208 7.1895 30.6212 7.3136C30.3216 7.43771 30.0493 7.61961 29.82 7.84893C29.5907 8.07825 29.4088 8.35049 29.2847 8.6501C29.1606 8.94972 29.0967 9.27085 29.0967 9.59515C29.0967 9.91946 29.1606 10.2406 29.2847 10.5402C29.4088 10.8398 29.5907 11.1121 29.82 11.3414C30.0493 11.5707 30.3216 11.7526 30.6212 11.8767C30.9208 12.0008 31.2419 12.0647 31.5663 12.0647C32.2212 12.0647 32.8493 11.8045 33.3125 11.3414C33.7756 10.8782 34.0358 10.2501 34.0358 9.59515C34.0358 8.94019 33.7756 8.31206 33.3125 7.84893C32.8493 7.3858 32.2212 7.12562 31.5663 7.12562ZM20.582 10.0119C19.1802 9.99002 17.7881 10.2472 16.4866 10.7685C15.1852 11.2899 14.0005 12.0649 13.0014 13.0484C12.0024 14.032 11.209 15.2045 10.6674 16.4976C10.1259 17.7908 9.84699 19.1787 9.84699 20.5807C9.84699 21.9827 10.1259 23.3706 10.6674 24.6638C11.209 25.9569 12.0024 27.1294 13.0014 28.113C14.0005 29.0965 15.1852 29.8715 16.4866 30.3929C17.7881 30.9142 19.1802 31.1714 20.582 31.1495C23.3565 31.1062 26.0026 29.9737 27.9494 27.9964C29.8961 26.019 30.9872 23.3555 30.9872 20.5807C30.9872 17.8059 29.8961 15.1424 27.9494 13.165C26.0026 11.1877 23.3565 10.0552 20.582 10.0119ZM20.582 13.7188C21.4829 13.7188 22.3751 13.8962 23.2075 14.241C24.0398 14.5858 24.7961 15.0911 25.4332 15.7282C26.0703 16.3653 26.5756 17.1216 26.9204 17.954C27.2652 18.7863 27.4427 19.6785 27.4427 20.5794C27.4427 21.4804 27.2652 22.3725 26.9204 23.2049C26.5756 24.0373 26.0703 24.7936 25.4332 25.4306C24.7961 26.0677 24.0398 26.5731 23.2075 26.9178C22.3751 27.2626 21.4829 27.4401 20.582 27.4401C18.7624 27.4401 17.0174 26.7173 15.7308 25.4306C14.4441 24.144 13.7213 22.399 13.7213 20.5794C13.7213 18.7599 14.4441 17.0148 15.7308 15.7282C17.0174 14.4416 18.7624 13.7188 20.582 13.7188Z" fill="white"/>
</svg>
