<svg width="125" height="120" viewBox="0 0 125 120" fill="none" xmlns="http://www.w3.org/2000/svg">
<path d="M57.4085 70.0234C51.3269 75.3659 38.9788 83.3332 45.0745 88.3506C48.5955 91.2486 56.223 77.1548 58.0911 70.585L59.2473 71.5371C62.5179 90.5024 59.3435 100.802 53.9651 108.758C43.1333 121.158 30.3562 121.107 26.1136 118.824L26.0559 112.232L19.2366 113.694C13.6239 105.449 15.2801 96.1069 22.8167 84.1826C29.509 73.5942 47.0877 69.8728 56.3567 69.1582L57.4085 70.0234ZM67.0491 69.1582C76.3179 69.8727 93.8977 73.594 100.59 84.1826C108.127 96.1068 109.783 105.449 104.17 113.694L97.3499 112.232L97.2932 118.824C93.0506 121.107 80.2725 121.158 69.4407 108.758C64.0624 100.802 60.888 90.5022 64.1585 71.5371L65.3147 70.585C67.1827 77.1547 74.8102 91.2478 78.3313 88.3506C84.4274 83.3333 72.08 75.366 65.9983 70.0234L67.0491 69.1582ZM3.0325 38.3604C9.21943 30.5504 18.5008 29.5157 31.886 33.4824C43.7716 37.0047 52.2657 53.0883 55.5677 61.9219L55.0501 63.1914C48.2862 58.7772 37.2694 48.9986 34.2649 56.3643C32.5304 60.6184 47.9864 64.0581 54.7132 64.0166L54.1438 65.4141C37.1811 73.9797 26.5646 73.8052 17.5354 70.8174C2.76763 63.7732 -0.807956 51.302 0.142848 46.5186L6.345 44.5938L3.0325 38.3604ZM93.1155 33.4824C106.501 29.5158 115.782 30.5504 121.969 38.3604L118.656 44.5938L124.858 46.5186C125.808 51.302 122.234 63.7731 107.466 70.8174C98.4369 73.8053 87.8204 73.9797 70.8577 65.4141L70.2884 64.0166C77.0153 64.058 92.4707 60.6183 90.7366 56.3643C87.7321 48.9987 76.7153 58.7772 69.9514 63.1914L69.4329 61.9219C72.7348 53.0883 81.2299 37.0047 93.1155 33.4824ZM63.2376 5.49902L67.3626 0.412109C72.0733 1.35171 82.0348 9.48659 82.7786 26.0527C82.0347 35.6762 78.1265 45.7123 63.846 58.3604H62.3587C64.9732 52.0592 67.7679 36.2256 63.2376 36.2256C55.3943 36.2258 60.0598 50.3178 61.4798 58.3604H60.1272C53.3656 51.8759 42.0063 37.7382 43.3587 25.2275C44.8816 11.1384 49.3767 2.81834 58.843 0L63.2376 5.49902Z" fill="#FF383C"/>
</svg>
