<svg width="510" height="885" viewBox="0 0 510 885" fill="none" xmlns="http://www.w3.org/2000/svg">
<g filter="url(#filter0_d_110_147)">
<path d="M416.681 107.532C480.316 109.828 503.614 127.357 504.669 130.496C469.709 131.86 450.394 134.95 416.681 146.421C385.798 137.453 345.272 132.894 292.847 139.138C240.987 133.53 200.415 137.022 169.013 146.421C136.391 131.09 117.086 127.728 81.0254 130.496C86.0084 126.059 115.299 105.665 169.013 107.532C200.415 98.1333 240.987 94.6413 292.847 100.249C345.272 94.0056 385.798 98.5642 416.681 107.532Z" fill="#8E7C78" stroke="white" stroke-width="1.73172"/>
<path d="M406.983 209.514C404.856 227.897 393.668 248.999 386.074 261.551C382.022 268.248 372.951 267.587 365.956 271.151C362.471 272.927 357.62 286.507 357.62 286.507C341.752 283.106 337.946 278.647 333.334 269.593C333.334 269.593 339.599 262.698 337.937 258.158C335.099 250.406 327.144 246.221 328.249 238.045C330.073 224.544 333.604 203.625 339.407 188.734C348.737 164.792 368.152 138.743 381.178 120.66C394.204 102.578 402.799 113.347 404.671 125.523C406.543 137.698 411.079 174.099 406.983 209.514Z" fill="#8E7C78" stroke="white" stroke-width="1.73172"/>
<path d="M109.252 198.222C109.168 216.727 117.756 239 123.798 252.361C127.021 259.489 136.106 259.905 142.626 264.269C145.875 266.444 149.069 280.501 149.069 280.501C165.231 278.999 169.543 275.021 175.203 266.576C175.203 266.576 169.807 258.989 171.999 254.678C175.742 247.317 184.141 244.1 184.021 235.852C183.822 222.231 182.815 201.043 178.832 185.573C172.427 160.698 156.262 132.539 145.488 113.046C134.714 93.5528 124.893 103.231 121.58 115.099C118.267 126.967 109.415 162.574 109.252 198.222Z" fill="#8E7C78" stroke="white" stroke-width="1.73172"/>
<path d="M187.709 875.866C163.879 875.866 135.324 873.711 124.025 872.634C99.7161 859.345 48.0162 808.419 35.6905 711.02C34.4934 701.561 33.4805 692.411 32.6318 683.582C16.1751 664.498 -10.2208 607.965 15.8496 534.508C48.4375 442.687 66.904 468.613 83.198 405.958C99.492 343.304 109.268 253.644 248.31 253.644C387.352 253.644 397.129 343.304 413.423 405.958C427.544 463.212 449.78 468.269 460.93 528.935C466.066 549.047 473.256 613.62 460.93 711.02C448.605 808.419 396.905 859.345 372.595 872.634C361.297 873.711 332.742 875.866 308.912 875.866C285.082 875.866 258.582 869.401 248.31 866.169C238.039 869.401 211.538 875.866 187.709 875.866Z" fill="#8E7C78"/>
<path d="M248.31 866.169C238.039 869.401 211.538 875.866 187.709 875.866C163.879 875.866 135.324 873.711 124.025 872.634C99.7161 859.345 48.0162 808.419 35.6905 711.02C34.4934 701.561 33.4805 692.411 32.6318 683.582M248.31 866.169V845.698M248.31 866.169C258.582 869.401 285.082 875.866 308.912 875.866C332.742 875.866 361.297 873.711 372.595 872.634C396.905 859.345 448.605 808.419 460.93 711.02C473.256 613.62 466.066 549.047 460.93 528.935C449.78 468.269 427.544 463.212 413.423 405.958C397.129 343.304 387.352 253.644 248.31 253.644C109.268 253.644 99.492 343.304 83.198 405.958C66.904 468.613 48.4375 442.687 15.8496 534.508C-10.2208 607.965 16.1751 664.498 32.6318 683.582M248.31 845.698C195.583 838.515 84.3773 797.645 61.3692 691.626C38.3611 585.607 70.9559 513.851 90.1294 491.225C117.178 481.887 186.681 463.212 248.31 463.212C309.939 463.212 379.443 481.887 406.491 491.225C425.665 513.851 458.26 585.607 435.252 691.626C412.243 797.645 301.037 838.515 248.31 845.698ZM35.6905 528.935C31.0535 547.093 24.7418 601.497 32.6318 683.582" stroke="white" stroke-width="1.73172"/>
<path d="M61.3695 691.625C84.3776 797.644 195.584 838.515 248.311 845.697C301.038 838.515 412.244 797.644 435.252 691.625C458.26 585.607 425.665 513.85 406.492 491.224C379.443 481.886 309.94 463.211 248.311 463.211C186.682 463.211 117.178 481.886 90.1296 491.224C70.9562 513.85 38.3613 585.607 61.3695 691.625Z" fill="white" stroke="#8E7C78" stroke-width="1.73172"/>
<path d="M126.766 514.502C116.57 523.362 111.438 531.011 107.08 543.695C106.36 545.79 108.967 547.378 110.656 545.937C117.91 539.748 123.734 536.971 133.129 535.476C142.575 534.342 148.943 535.419 157.629 539.384C159.652 540.307 161.719 538.067 160.447 536.25C152.748 525.248 145.697 519.298 133.443 513.57C131.231 512.536 128.607 512.902 126.766 514.502Z" fill="#8E7C78" stroke="white" stroke-width="1.73172"/>
<path d="M94.9653 570.294C86.1891 578.044 81.7779 584.744 78.0452 595.86C77.4287 597.696 79.6808 599.095 81.1351 597.834C87.3791 592.421 92.3969 589.997 100.498 588.705C108.643 587.73 114.138 588.688 121.639 592.183C123.386 592.998 125.164 591.037 124.063 589.44C117.399 579.774 111.304 574.541 100.723 569.491C98.8126 568.579 96.5494 568.895 94.9653 570.294Z" fill="#8E7C78" stroke="white" stroke-width="1.73172"/>
<path d="M406.17 570.294C414.946 578.044 419.357 584.744 423.09 595.86C423.707 597.696 421.454 599.095 420 597.834C413.756 592.421 408.738 589.997 400.637 588.705C392.492 587.73 386.997 588.688 379.496 592.183C377.749 592.998 375.971 591.037 377.072 589.44C383.736 579.774 389.831 574.541 400.413 569.491C402.323 568.579 404.586 568.895 406.17 570.294Z" fill="#8E7C78" stroke="white" stroke-width="1.73172"/>
<path d="M171.004 551.976C162.228 559.726 157.817 566.425 154.084 577.542C153.467 579.378 155.719 580.776 157.174 579.516C163.418 574.102 168.435 571.678 176.536 570.387C184.682 569.412 190.177 570.369 197.677 573.865C199.425 574.679 201.203 572.718 200.102 571.122C193.438 561.456 187.343 556.222 176.761 551.173C174.851 550.261 172.588 550.577 171.004 551.976Z" fill="#8E7C78" stroke="white" stroke-width="1.73172"/>
<path d="M330.131 551.976C338.908 559.726 343.319 566.425 347.052 577.542C347.668 579.378 345.416 580.776 343.962 579.516C337.718 574.102 332.7 571.678 324.599 570.387C316.453 569.412 310.959 570.369 303.458 573.865C301.711 574.679 299.933 572.718 301.033 571.122C307.698 561.456 313.792 556.222 324.374 551.173C326.284 550.261 328.547 550.577 330.131 551.976Z" fill="#8E7C78" stroke="white" stroke-width="1.73172"/>
<path d="M247.12 548.344C237.346 554.807 232.042 560.832 226.792 571.325C225.925 573.058 227.96 574.754 229.576 573.706C236.516 569.208 241.824 567.501 250.027 567.341C258.229 567.501 263.537 569.208 270.477 573.706C272.093 574.754 274.128 573.058 273.261 571.325C268.012 560.832 262.707 554.807 252.934 548.344C251.169 547.178 248.884 547.178 247.12 548.344Z" fill="#8E7C78" stroke="white" stroke-width="1.73172"/>
<path d="M370.431 514.667C380.356 523.827 385.255 531.626 389.23 544.434C389.886 546.549 387.232 548.059 385.587 546.568C378.523 540.166 372.785 537.216 363.439 535.443C354.032 534.028 347.635 534.914 338.833 538.618C336.783 539.481 334.784 537.18 336.11 535.401C344.138 524.634 351.365 518.897 363.786 513.537C366.028 512.569 368.64 513.014 370.431 514.667Z" fill="white" stroke="#8E7C78" stroke-width="1.73172"/>
<path d="M204.014 498.985C193.112 506.969 187.357 514.167 181.951 526.446C181.059 528.474 183.524 530.273 185.328 528.976C193.075 523.41 199.111 521.125 208.599 520.413C218.107 520.066 224.362 521.666 232.686 526.336C234.625 527.424 236.872 525.362 235.757 523.446C229.006 511.846 222.478 505.332 210.746 498.609C208.629 497.396 205.982 497.543 204.014 498.985Z" fill="#8E7C78" stroke="white" stroke-width="1.73172"/>
<path d="M292.875 499.014C303.721 507.074 309.427 514.311 314.747 526.626C315.625 528.66 313.148 530.442 311.353 529.133C303.644 523.514 297.624 521.187 288.142 520.411C278.636 519.998 272.37 521.556 264.014 526.169C262.068 527.243 259.835 525.166 260.963 523.258C267.794 511.704 274.368 505.235 286.146 498.593C288.272 497.394 290.917 497.56 292.875 499.014Z" fill="#8E7C78" stroke="white" stroke-width="1.73172"/>
<path d="M195.084 257.965C198.705 253.644 207.902 243.921 215.723 239.6C225.499 234.199 250.483 239.6 268.95 239.6C287.416 239.6 298.279 237.44 313.487 243.922C328.694 250.403 336.298 255.805 321.091 272.008C309.386 284.48 300.898 280.313 290.675 280.195L286.33 261.206L280.899 281.731C265.691 287.132 264.142 294.027 249.397 287.132C239.621 284.252 229.844 277.41 215.723 266.607C204.426 257.965 197.256 257.245 195.084 257.965Z" fill="#6DAC62"/>
<g style="mix-blend-mode:multiply" opacity="0.5">
<path d="M292.835 100.22C341.088 94.1103 368.061 95.7274 415.994 107.171C453.442 108.547 473.591 112.637 505.005 128.248C505.142 128.538 505.248 128.762 505.319 128.918C505.378 129.031 505.429 129.145 505.467 129.258L505.866 130.445L504.607 130.494C469.728 131.855 450.505 134.932 416.889 146.37L416.605 146.466L416.317 146.383C413.582 145.589 410.771 144.829 407.882 144.109C409.466 161.153 410.547 185.127 407.822 208.68C405.67 227.283 394.382 248.537 386.784 261.095C384.572 264.752 381.001 266.349 377.297 267.484C376.233 267.809 375.1 268.113 373.977 268.413H373.974C373.183 268.625 372.397 268.836 371.643 269.052C369.767 269.59 367.956 270.197 366.288 271.047C366.011 271.188 365.648 271.489 365.216 271.991C364.792 272.483 364.346 273.116 363.889 273.853C362.974 275.327 362.059 277.15 361.242 278.943C360.427 280.73 359.719 282.466 359.214 283.757C359.103 284.039 359.003 284.3 358.913 284.534C366.16 290.707 372.302 297.534 377.565 304.817C388.75 320.292 395.945 337.809 401.382 355.394C401.463 355.369 401.544 355.345 401.625 355.32C401.791 355.93 401.956 356.535 402.119 357.136C402.057 357.155 401.994 357.174 401.932 357.193L402.04 357.549C402.099 357.531 402.157 357.514 402.216 357.496C402.381 358.105 402.544 358.711 402.707 359.313C402.664 359.326 402.62 359.339 402.577 359.352C405.359 368.784 407.683 378.193 409.895 387.275C409.945 387.272 409.995 387.269 410.045 387.267C410.202 387.883 410.361 388.502 410.519 389.125C410.462 389.128 410.405 389.131 410.349 389.134L410.462 389.6C410.52 389.597 410.578 389.594 410.637 389.591C410.793 390.207 410.949 390.827 411.107 391.45C411.043 391.453 410.978 391.457 410.914 391.46C412.022 396.011 413.116 400.465 414.239 404.782L414.242 404.794C414.993 407.839 415.768 410.735 416.562 413.499C412.476 409.624 408.595 405.895 404.749 402.36C390.357 400.12 375.099 398.645 356.282 397.462L356.338 396.6L356.394 395.735C374.144 396.851 388.746 398.228 402.439 400.259C390.82 389.803 379.196 381.221 362.798 375.895C360.621 375.948 358.405 376.009 356.146 376.08L356.097 374.35C357.389 374.309 358.667 374.273 359.932 374.238C344.993 353.875 333.068 343.78 308.474 333.504V431.468C308.303 431.493 308.136 431.519 307.973 431.543V508.562C307.973 510.308 307.816 512.018 307.52 513.68C318.88 526.528 335.187 541.997 356.42 554.198C380.724 568.165 412.677 574.506 435.127 576.723L453.875 577.693C454.128 577.69 454.377 577.687 454.62 577.683C454.598 577.698 454.574 577.712 454.552 577.728L454.612 577.732C459.299 584.014 465.393 599.206 468.388 624.326C467.809 649.047 465.867 677.813 461.769 710.196C449.409 807.871 397.546 859.072 372.951 872.517L372.78 872.61L372.587 872.629C361.273 873.708 332.685 875.865 308.813 875.865C285.069 875.865 258.73 869.49 248.211 866.214C237.691 869.49 211.354 875.865 187.609 875.865C178.432 875.865 168.558 875.544 159.236 875.09C158.669 860.495 153.377 830.174 135.784 813.151C117.491 795.45 102.618 771.767 97.4677 762.139C143.905 782.332 233.777 802.302 302.278 737.333C369.822 673.272 359.406 605.895 360.089 574.172C335.327 562.24 315.962 542.331 302.681 525.267C297.38 532.788 288.601 537.707 278.664 537.707C262.478 537.707 249.356 524.658 249.355 508.562V497.219C249.355 495.142 251.049 493.459 253.137 493.459C255.225 493.459 256.918 495.142 256.918 497.219V508.562C256.918 520.505 266.654 530.186 278.664 530.187C286.95 530.187 294.154 525.578 297.824 518.797C289.205 506.894 283.939 497.301 282.307 494.35C278.768 487.951 280.956 464.836 282.049 454.234C282.94 468.131 286.176 486.011 288.638 489.307C290.097 491.261 294.026 497.252 300.41 505.224V330.106C277.736 314.16 264.253 306.109 235.053 300.982C233.947 297.215 229.141 287.104 218.766 276.786C208.39 266.468 198.891 260.621 195.439 258.988L197.34 254.828C201.849 249.966 208.907 243.175 215.164 239.718C217.793 238.265 221.357 237.578 225.407 237.322C229.476 237.065 234.144 237.238 239.044 237.576C242.256 237.798 245.564 238.09 248.882 238.383H248.884C255.747 238.989 262.654 239.599 268.85 239.599C272.717 239.599 276.265 239.502 279.602 239.41H279.605C282.896 239.32 285.983 239.235 288.967 239.255V138.747C238.955 133.703 199.692 137.25 169.186 146.381L168.839 146.485L168.51 146.33C166.849 145.55 165.224 144.801 163.63 144.082C170.194 157.255 176.27 171.276 179.648 184.4C183.661 199.987 184.668 221.274 184.867 234.899C184.933 239.398 182.648 242.495 180.055 245.295C179.476 245.92 178.886 246.527 178.299 247.132C176.204 249.288 174.143 251.408 172.743 254.162C172.316 255.002 172.228 256.066 172.41 257.277C172.591 258.482 173.027 259.751 173.546 260.926C173.853 261.622 174.185 262.273 174.5 262.846L173.342 264.871L170.259 266.106C170.227 266.276 169.383 264.657 167.892 261.198C166.029 256.873 167.651 249.361 171.289 239.955C174.927 230.549 176.312 201.28 166.195 180.08C158.612 164.19 153.33 151.883 136.696 145.904C128.035 142.791 121.148 140.717 114.685 138.812C115.287 135.802 115.894 132.964 116.483 130.326C107.813 129.46 98.6053 129.421 87.9061 130.029C86.4996 129.483 85.0466 128.906 83.5409 128.289C116.112 110.635 133.758 107.209 168.768 107.209C216.432 96.484 243.624 95.2268 292.835 100.22ZM34.7352 528.614C26.8439 578.841 26.2108 615.654 31.577 682.975C23.8106 673.852 13.9939 656.674 8.35925 633.497C12.0279 599.005 19.2834 570.173 34.7352 528.614ZM364.107 423.156C389.742 428.647 407.902 433.762 426.671 440.954C427.021 441.718 427.372 442.471 427.724 443.216C408.431 435.71 390.044 430.483 363.74 424.849L363.923 424.002L364.107 423.156ZM128.896 423.898L128.926 424.762C107.043 425.468 90.3125 426.836 73.8983 429.428C74.1713 428.815 74.4436 428.188 74.7147 427.546C90.8495 425.053 107.392 423.724 128.867 423.031L128.896 423.898ZM84.6268 395.063C99.8324 394.559 115.736 395.014 135.449 396.278L135.393 397.143L135.34 398.007C115.469 396.732 99.4938 396.283 84.1962 396.811C84.3396 396.23 84.4834 395.647 84.6268 395.063ZM90.6483 370.855C104.915 371.403 119.971 372.548 137.601 374.425L137.422 376.146C119.674 374.256 104.547 373.109 90.202 372.568C90.3503 371.998 90.4977 371.426 90.6483 370.855ZM367.229 137.435C347.823 135.739 325.92 135.757 301.263 138.212V240.239C305.256 240.943 309.332 242.109 313.76 243.996C317.567 245.619 320.956 247.198 323.641 248.914C326.318 250.626 328.396 252.537 329.456 254.871C330.536 257.249 330.496 258.041 329.232 261.11C328.705 262.391 327.962 265.628 326.993 267.075C328.966 267.897 330.889 268.753 332.763 269.639L332.779 269.619C332.94 269.429 333.17 267.273 333.441 266.926C333.986 266.23 334.692 265.26 335.345 264.159C336 263.054 336.584 261.846 336.907 260.671C337.232 259.49 337.273 258.423 336.949 257.539C335.888 254.639 334.095 252.29 332.273 249.902C331.762 249.232 331.249 248.559 330.749 247.87C328.508 244.784 326.61 241.438 327.213 236.979C329.037 223.474 332.579 202.457 338.426 187.454C344.979 170.638 356.468 152.807 367.229 137.435Z" fill="#6DAC62"/>
</g>
<path d="M248.31 866.169C238.039 869.401 211.538 875.866 187.709 875.866C163.879 875.866 135.324 873.711 124.025 872.634C99.7161 859.345 48.0162 808.419 35.6905 711.02C34.4934 701.561 33.4805 692.411 32.6318 683.582M248.31 866.169V845.698M248.31 866.169C258.582 869.401 285.082 875.866 308.912 875.866C332.742 875.866 361.297 873.711 372.595 872.634C396.905 859.345 448.605 808.419 460.93 711.02C473.256 613.62 466.066 549.047 460.93 528.935C449.78 468.269 427.544 463.212 413.423 405.958C400.899 357.8 392.225 293.687 325.742 266.598M248.31 845.698C195.583 838.515 84.3774 797.645 61.3692 691.626C38.3611 585.607 70.9559 513.851 90.1294 491.225C117.178 481.887 186.681 463.212 248.31 463.212C309.939 463.212 379.443 481.887 406.491 491.225C425.665 513.851 458.26 585.607 435.252 691.626C412.243 797.645 301.037 838.515 248.31 845.698ZM35.6905 528.935C31.0535 547.093 24.7418 601.497 32.6318 683.582M32.6318 683.582C16.1751 664.498 -10.2208 607.965 15.8496 534.508C48.4375 442.687 66.904 468.613 83.198 405.958C97.2964 351.747 106.515 277.316 198.813 258.242" stroke="white" stroke-width="1.73172"/>
<path d="M333.334 269.593C333.334 269.593 339.599 262.698 337.937 258.158C335.099 250.406 327.144 246.221 328.249 238.045C330.073 224.544 333.604 203.625 339.407 188.734C348.737 164.792 368.152 138.743 381.178 120.66C394.204 102.578 402.799 113.347 404.671 125.523C406.543 137.698 411.079 174.099 406.983 209.514C404.856 227.897 393.668 248.999 386.073 261.551C382.022 268.248 372.951 267.587 365.956 271.151C362.471 272.927 357.62 286.507 357.62 286.507" stroke="white" stroke-width="1.73172"/>
<path d="M174.265 265.107C172.827 262.687 170.404 257.815 171.999 254.678C175.742 247.317 184.141 244.1 184.021 235.852C183.822 222.231 182.815 201.043 178.832 185.573C172.427 160.698 156.262 132.539 145.488 113.046C134.714 93.5528 124.893 103.231 121.58 115.099C118.267 126.967 109.415 162.574 109.252 198.222C109.168 216.727 117.756 239 123.798 252.361C127.021 259.489 136.106 259.905 142.626 264.269C145.084 265.915 147.511 274.363 148.547 278.378" stroke="white" stroke-width="1.73172"/>
<path d="M215.723 239.6C207.902 243.921 198.705 253.644 195.084 257.965C197.256 257.245 204.426 257.965 215.723 266.607C229.844 277.41 239.621 284.252 249.397 287.132M215.723 239.6C225.499 234.199 250.483 239.6 268.95 239.6C287.416 239.6 298.279 237.44 313.487 243.922C328.694 250.403 336.298 255.805 321.091 272.008C309.386 284.48 300.898 280.313 290.675 280.195L286.33 261.206L280.899 281.731C265.691 287.132 264.142 294.027 249.397 287.132M215.723 239.6C220.853 255.035 237.578 281.605 249.397 287.132" stroke="white" stroke-width="1.73172"/>
<path d="M148.374 340.297C148.374 333.009 154.21 327.101 161.409 327.101C168.609 327.101 172.272 329.261 174.445 337.903C175.564 342.357 174.995 348.959 174.648 351.937C174.547 352.802 173.748 353.394 172.885 353.279C164.489 352.162 159.021 352.123 150.184 353.253C149.227 353.375 148.374 352.634 148.374 351.67V340.297Z" fill="white" stroke="#8E7C78" stroke-width="1.73172"/>
<path d="M250.483 417.842C250.483 420.228 248.586 422.163 246.245 422.163C243.905 422.163 242.714 421.455 242.008 418.626C241.658 417.225 241.815 415.175 241.928 414.152C241.973 413.745 242.187 413.378 242.519 413.139C245.301 411.133 247.062 411.159 249.832 413.055C250.247 413.34 250.483 413.817 250.483 414.32L250.483 417.842Z" fill="white" stroke="#CCB1B1" stroke-width="1.73172"/>
<path d="M340.216 340.297C340.216 333.009 334.38 327.101 327.181 327.101C319.982 327.101 316.318 329.261 314.146 337.903C313.026 342.357 313.595 348.959 313.943 351.937C314.044 352.802 314.842 353.394 315.706 353.279C324.101 352.162 329.57 352.123 338.407 353.253C339.363 353.375 340.216 352.634 340.216 351.67V340.297Z" fill="white" stroke="#8E7C78" stroke-width="1.73172"/>
<path d="M153.189 336.608C153.529 336.608 153.773 336.914 153.71 337.231L153.677 337.391C153.179 339.868 153.179 342.419 153.677 344.895L153.781 345.411C153.858 345.795 153.668 346.186 153.31 346.364L153.194 346.422C152.896 346.57 152.544 346.57 152.246 346.422L151.752 346.177C151.458 346.03 151.244 345.764 151.165 345.45C150.59 343.164 150.216 340.981 150.942 339.061C151.045 338.789 151.157 338.555 151.276 338.369C151.639 337.801 152.406 337.112 152.904 336.702C152.972 336.646 153.069 336.608 153.189 336.608Z" fill="#6DAC62" stroke="#8E7C78" stroke-width="1.73172"/>
<path d="M321.345 336.608C321.685 336.608 321.929 336.914 321.866 337.231L321.834 337.391C321.336 339.868 321.336 342.419 321.834 344.895L321.937 345.411C322.014 345.795 321.824 346.186 321.467 346.364L321.35 346.422C321.052 346.57 320.7 346.57 320.402 346.422L319.908 346.177C319.614 346.03 319.4 345.764 319.321 345.45C318.746 343.164 318.372 340.981 319.098 339.061C319.201 338.789 319.313 338.555 319.432 338.369C319.796 337.801 320.563 337.112 321.06 336.702C321.128 336.646 321.226 336.608 321.345 336.608Z" fill="#8E7C78" stroke="#6DAC62" stroke-width="1.73172"/>
<path d="M222.078 368.33L243.542 376.236C244.516 376.595 245.587 376.595 246.561 376.236L268.024 368.33C270.995 367.236 271.655 363.613 268.89 362.076C263.68 359.179 255.537 356.267 245.051 356.267C234.566 356.267 226.423 359.179 221.213 362.076C218.448 363.613 219.108 367.236 222.078 368.33Z" fill="white" stroke="#8E7C78" stroke-width="1.73172"/>
<path d="M268.891 357.755C263.68 354.859 255.538 351.946 245.052 351.946C234.566 351.946 226.424 354.859 221.213 357.755" stroke="white" stroke-width="1.73172"/>
<path d="M137.512 375.286C88.5695 356.495 59.7793 349.702 7.15967 339.638" stroke="white" stroke-width="1.73172"/>
<path d="M135.339 396.787C89.8911 389.651 64.6821 388.793 20.1951 392.465" stroke="white" stroke-width="1.73172"/>
<path d="M128.821 423.689C86.1783 420.781 62.9587 422.381 22.3673 429.091" stroke="white" stroke-width="1.73172"/>
<path d="M137.512 373.55C88.5695 354.76 59.7793 347.966 7.15967 337.902" stroke="#8E7C78" stroke-width="1.73172"/>
<path d="M135.339 395.156C89.8911 388.02 64.6821 387.162 20.1951 390.834" stroke="#8E7C78" stroke-width="1.73172"/>
<path d="M128.821 422.161C86.1783 419.252 62.9587 420.852 22.3673 427.562" stroke="#8E7C78" stroke-width="1.73172"/>
<path d="M297.581 99.1685V504.801C297.581 518.821 286.152 530.187 272.054 530.187C257.956 530.187 246.527 518.821 246.527 504.801V493.459" stroke="white" stroke-width="6.9269" stroke-linecap="round"/>
<path d="M292.848 99.1685V504.801C292.848 518.821 281.419 530.187 267.32 530.187C253.222 530.187 241.793 518.821 241.793 504.801V493.459" stroke="#8E7C78" stroke-width="6.9269" stroke-linecap="round"/>
<path d="M454.701 577.696C436.312 578.055 391.309 574.044 358.41 555.139C317.286 531.507 294.216 496.06 290.204 490.689C286.192 485.318 278.167 441.277 287.195 438.055C296.222 434.832 334.337 427.313 360.416 432.684C381.279 436.981 400.537 448.08 407.559 453.093" stroke="#8E7C78" stroke-width="1.73172"/>
<path d="M81.0254 130.496C81.0254 130.496 128.76 20.3108 292.847 20.3108C452.631 20.3108 502.085 124.792 504.569 130.273C504.613 130.354 504.646 130.428 504.669 130.496C504.669 130.496 504.636 130.42 504.569 130.273C502.588 126.606 478.941 109.778 416.681 107.532C385.798 98.5641 345.272 94.0055 292.847 100.249C240.987 94.6412 200.415 98.1331 169.013 107.532C115.299 105.665 86.0084 126.059 81.0254 130.496Z" fill="white"/>
<path d="M292.847 100.249C345.272 94.0055 385.798 98.5641 416.681 107.532M292.847 100.249V20.3108M292.847 100.249C240.987 94.6412 200.415 98.1331 169.013 107.532M292.847 20.3108C128.76 20.3108 81.0254 130.496 81.0254 130.496C86.0084 126.059 115.299 105.665 169.013 107.532M292.847 20.3108C456.935 20.3108 504.669 130.496 504.669 130.496C503.614 127.357 480.316 109.827 416.681 107.532M292.847 20.3108C225.69 24.7883 197.441 42.1162 169.013 107.532M292.847 20.3108C364.929 24.4979 388.872 47.5878 416.681 107.532" stroke="#8E7C78" stroke-width="1.73172"/>
<path d="M292.847 0.86586C295.855 0.86586 296.249 13.8288 296.07 20.3103H289.625C289.446 13.8288 289.84 0.86586 292.847 0.86586Z" fill="#8E7C78" stroke="white" stroke-width="1.73172"/>
<path d="M358.41 555.139C391.309 574.044 436.312 578.055 454.701 577.696L407.559 453.093C400.537 448.08 381.279 436.981 360.416 432.684C334.337 427.313 296.222 434.832 287.195 438.055C278.167 441.277 286.192 485.318 290.204 490.689C294.216 496.06 317.286 531.507 358.41 555.139Z" fill="#8E7C78"/>
<path d="M454.701 577.696C436.312 578.055 391.309 574.044 358.41 555.139C317.286 531.507 294.216 496.06 290.204 490.689C286.192 485.318 278.167 441.277 287.195 438.055C296.222 434.832 334.337 427.313 360.416 432.684C381.279 436.981 400.537 448.08 407.559 453.093" stroke="white" stroke-width="1.73172"/>
<path d="M354.765 374.938C403.707 356.148 432.497 349.354 485.117 339.29" stroke="white" stroke-width="1.73172"/>
<path d="M356.338 396.822C402.259 389.612 427.731 388.745 472.681 392.455" stroke="white" stroke-width="1.73172"/>
<path d="M363.455 423.587C406.098 420.678 429.318 422.279 469.909 428.988" stroke="white" stroke-width="1.73172"/>
<path d="M354.765 373.55C403.707 354.76 432.497 347.966 485.117 337.902" stroke="#8E7C78" stroke-width="1.73172"/>
<path d="M356.937 395.156C402.385 388.02 427.594 387.162 472.081 390.834" stroke="#8E7C78" stroke-width="1.73172"/>
<path d="M363.455 422.161C406.098 419.252 429.318 420.852 469.909 427.562" stroke="#8E7C78" stroke-width="1.73172"/>
<g style="mix-blend-mode:multiply" opacity="0.5">
<path d="M289.067 100.958C290.163 101.143 291.327 101.37 292.699 101.673C294.151 101.432 295.427 101.229 296.629 101.047V297.584C294.179 295.915 291.761 294.553 289.067 293.358V100.958Z" fill="#6DAC62"/>
</g>
<g style="mix-blend-mode:multiply" opacity="0.5">
<path d="M289.741 487.357C287.071 479.657 285.042 465.66 284.362 459.625C295.853 474.468 325.15 509.397 350.411 530.365C375.672 551.334 430.534 570.133 454.807 576.912C434.016 576.658 411.292 574.041 390.536 567.516C372.573 561.869 356.377 554.476 342.269 543.396C316.456 525.548 295.168 495.909 293.091 493.017L293.078 492.999C291.076 490.212 290.542 490.012 289.741 487.357Z" fill="#6DAC62"/>
</g>
</g>
<defs>
<filter id="filter0_d_110_147" x="0" y="0" width="509.866" height="884.732" filterUnits="userSpaceOnUse" color-interpolation-filters="sRGB">
<feFlood flood-opacity="0" result="BackgroundImageFix"/>
<feColorMatrix in="SourceAlpha" type="matrix" values="0 0 0 0 0 0 0 0 0 0 0 0 0 0 0 0 0 0 127 0" result="hardAlpha"/>
<feOffset dy="4"/>
<feGaussianBlur stdDeviation="2"/>
<feComposite in2="hardAlpha" operator="out"/>
<feColorMatrix type="matrix" values="0 0 0 0 0.00157752 0 0 0 0 0.00157752 0 0 0 0 0.00157752 0 0 0 1 0"/>
<feBlend mode="normal" in2="BackgroundImageFix" result="effect1_dropShadow_110_147"/>
<feBlend mode="normal" in="SourceGraphic" in2="effect1_dropShadow_110_147" result="shape"/>
</filter>
</defs>
</svg>
