<svg width="55" height="55" viewBox="0 0 55 55" fill="none" xmlns="http://www.w3.org/2000/svg">
<path d="M43.3618 11.1761C41.2747 9.06861 38.789 7.39755 36.0495 6.26035C33.3101 5.12315 30.3717 4.54254 27.4056 4.55237C14.9775 4.55237 4.84836 14.6815 4.84836 27.1096C4.84836 31.093 5.89541 34.9625 7.85295 38.3768L4.66626 50.0765L16.6164 46.9354C19.9169 48.7336 23.6271 49.6896 27.4056 49.6896C39.8337 49.6896 49.9628 39.5605 49.9628 27.1324C49.9628 21.1004 47.6183 15.4326 43.3618 11.1761ZM27.4056 45.8656C24.0368 45.8656 20.7363 44.9551 17.8455 43.2479L17.1626 42.8382L10.0609 44.7047L11.9501 37.785L11.4949 37.0794C9.62281 34.0909 8.62897 30.6361 8.62686 27.1096C8.62686 16.7756 17.0488 8.35364 27.3828 8.35364C32.3905 8.35364 37.1022 10.3112 40.6304 13.8621C42.3776 15.6008 43.7622 17.6691 44.7039 19.9471C45.6456 22.2251 46.1256 24.6674 46.116 27.1324C46.1615 37.4663 37.7396 45.8656 27.4056 45.8656ZM37.694 31.8441C37.125 31.571 34.348 30.2052 33.8473 30.0004C33.3237 29.8183 32.9595 29.7272 32.5726 30.2735C32.1856 30.8426 31.1158 32.1173 30.7971 32.4815C30.4785 32.8684 30.137 32.9139 29.568 32.618C28.9989 32.3449 27.178 31.7303 25.0383 29.8183C23.3539 28.316 22.2386 26.4723 21.8972 25.9032C21.5785 25.3342 21.8516 25.0382 22.1475 24.7423C22.3979 24.492 22.7166 24.0822 22.9897 23.7636C23.2629 23.4449 23.3767 23.1945 23.5588 22.8303C23.7409 22.4434 23.6498 22.1247 23.5133 21.8516C23.3767 21.5784 22.2386 18.8014 21.7833 17.6633C21.3281 16.5708 20.8501 16.7073 20.5087 16.6846H19.4161C19.0291 16.6846 18.4373 16.8211 17.9138 17.3902C17.413 17.9592 15.9563 19.325 15.9563 22.1019C15.9563 24.8789 17.9821 27.5648 18.2552 27.929C18.5284 28.316 22.2386 34.0065 27.8836 36.4421C29.2266 37.0339 30.2736 37.3753 31.093 37.6257C32.436 38.0582 33.6652 37.9899 34.6439 37.8533C35.7365 37.694 37.99 36.4876 38.4452 35.1674C38.9232 33.8472 38.9232 32.7318 38.7639 32.4815C38.6045 32.2311 38.2631 32.1173 37.694 31.8441Z" fill="white"/>
</svg>
